ply
format ascii 1.0
comment Generated by PyMesh
element vertex 442
property float x
property float y
property float z
property float charge
property float hbond
property float hphob
property float nx
property float ny
property float nz
property float si
element face 808
property list uchar int vertex_indices
end_header
129.398 127.192 120.761 0 -0.499996 -1.0055 0.474838 -0.841665 0.257156 0.550931
131.402 127.456 121.594 0 0 -1.25961 -0.506419 -0.804243 0.31102 0.755076
133.426 132.132 124.13 0 0 -4.5 0.991875 0.0729051 0.104255 -0.673119
126.715 127.194 120.828 0 0 4.5 -0.150647 -0.955251 0.25456 0.199366
142.317 132.015 114.533 0 -0.347272 -3.5 -0.169707 0.979526 -0.108296 -0.999933
140.797 121.251 117.557 0 0 -1.6 0.567393 -0.823443 -0.00251321 0.999965
136.554 134.98 119.154 0 0 -4.08521 -0.0346713 0.619722 0.784055 0.793606
135.911 123.317 113.665 0 0 -0.907738 -0.81624 0.140102 -0.560468 0.895381
121.941 132.826 122.859 0 -0.497451 -0.8 -0.418359 0.767575 0.485597 0.35018
124.122 127.412 127.038 0 0 -1.04841 0.999682 -0.00686386 -0.024261 0.999956
137.837 133.718 121.052 0 0 -4.5 -0.864143 0.448977 0.227323 -0.126343
141.572 133.789 121.995 0 0 -1.3 0.653634 0.585238 0.479853 -0.999934
127.017 135.417 120.845 0 0 -3.5 0.409594 0.208259 0.888178 0.831671
139.426 128.844 123.222 0 -0.127074 -3.5 -0.44286 -0.777612 -0.446312 -0.621772
121.567 131.751 118.865 0 0 -1.3 -0.61751 0.72944 -0.294278 0.999917
134.437 121.032 115.032 0 0 -1.6 -0.646862 0.588199 -0.485378 0.999906
136.098 124.482 119.038 0 -0.0921156 -3.5 -0.1658 -0.667091 0.726292 0.260199
138.006 122.43 119.12 0 0 -3.5 -0.898447 0.126943 0.420332 -0.41159
124.822 127.856 125.666 0 0 -1.3 0.867225 -0.150863 0.474511 0.605008
137.35 130.781 127.282 0 0 -1.6 -0.27464 0.391248 0.87835 0.754518
122.608 131.878 125.752 0 0 -0.7 -0.0960235 0.768026 0.633179 0.999926
129.258 134.214 124.195 0 0 3.8 -0.343531 0.691118 0.635879 0.585141
141.353 133.837 116.687 0 0 -3.5 -0.101822 0.785199 -0.610814 0.999915
128.93 131.425 116.864 0 0 2.8 0.648832 0.244001 -0.72075 0.672873
126.78 133.04 121.219 0 -0.150293 -3.5 0.190167 0.670102 0.717495 -0.645673
124.05 132.969 124.061 0 -0.964249 -0.8 0.000123833 0.925773 0.37808 0.509744
138.089 132.035 114.06 0 0 1.8 -0.49863 0.644773 -0.579341 0.0943775
131.188 133.53 125.314 0 0 3.8 -0.210729 0.731137 0.64887 -0.135017
136.942 123.589 112.934 0 0 2.52854 -0.405914 0.535551 -0.740553 0.395717
124.437 134.03 122.444 0 -0.826944 -0.8 -0.151091 0.577058 0.802606 0.58072
125.895 133.094 121.776 0 -0.159878 -3.5 0.62821 0.569593 0.530016 -0.749503
140.786 123.6 121.106 0 0 3.8 -0.318111 -0.213499 0.923701 -0.247713
135.404 131.697 115.191 0 0 1.8 -0.146808 0.298044 -0.943195 -0.28601
129.797 133.632 119.143 0 0 2.8 -0.562966 0.226714 -0.794777 -0.776833
139.348 129.175 122.118 0 -0 -3.5 -0.420066 -0.869278 0.260578 -0.957493
134.162 126.198 115.743 0 -0.222591 -0.7 -0.899324 -0.341565 -0.273038 -0.481265
133.695 134.221 124.413 0 0 -4.5 0.754675 0.359768 0.548664 0.73847
134.626 129.172 123.184 0 -0.0694661 -3.5 0.230327 -0.313239 0.92132 0.118791
124.04 127.835 116.814 0 0 2.8 -0.115103 -0.1883 -0.975343 0.999927
133.82 127.16 115.283 0 0 -0.131341 -0.897753 -0.122881 -0.423013 0.666354
139.4 126.643 113.811 0 0 2.8 -0.189962 -0.130437 -0.973088 -0.28111
138.64 128.16 113.933 0 0 2.8 -0.261349 -0.295004 -0.919059 -0.666167
136.051 126.316 113.992 0 0 2.8 -0.202858 -0.0436863 -0.978233 0.26694
124.718 126.98 117.032 0 0 2.8 0.0406209 -0.602193 -0.797317 0.999905
137.346 129.606 123.271 0 -0.145958 -3.98369 -0.688114 -0.198247 -0.697995 0.529757
137.617 133.749 123.158 0 0 -4.5 -0.715885 -0.0158949 -0.698038 0.653028
139.861 135.809 121.686 0 0 -1.5958 -0.278424 0.876795 0.392059 0.999914
139.395 122.12 120.945 0 0 3.8 -0.250063 -0.21957 0.943005 0.610692
126.428 128.201 122.778 0 0 4.5 -0.161002 -0.909764 0.382632 -0.387355
140.919 131.033 112.841 0 0 4.5 0.164683 0.438863 -0.883334 -0.999844
140.421 133.278 116.016 0 -0.139826 -3.5 0.426003 0.73181 -0.531955 -0.115093
132.126 135.536 117.777 0 0 -3.31689 0.199125 0.401193 -0.894088 0.738021
127.474 136.208 120.233 0 0 0.951801 0.685225 0.605176 0.405251 0.999898
135.941 119.882 117.573 0 0 -1.3 -0.109344 -0.335782 0.935571 0.999922
141.856 133.111 122.723 0 0 -1.3 0.599428 0.75693 0.260276 -0.99994
141.559 123.707 113.669 0 -0.599207 -0.8 0.458816 0.196714 -0.866482 0.999931
128.379 127.883 122.902 0 0 -0.231943 0.326474 -0.779739 0.53425 0.615536
127.259 133.581 116.815 0 0 0.544488 0.62557 0.513562 -0.587296 -0.0788741
126.268 127.21 116.754 0 0 2.8 -0.352719 -0.527263 -0.773035 0.149405
140.889 121.353 119.685 0 0 1.16012 0.598394 -0.768666 0.226002 0.99987
127.576 132.941 116.099 0 0 1.19761 0.524401 0.511326 -0.680844 0.999917
133.333 127.375 122.314 0 -0.000678116 -3.5 0.0662658 -0.740399 0.668893 0.665581
129.902 128.153 121.362 0 -0.588707 -1.3 0.314635 -0.804513 0.50375 -0.479899
127.346 127.747 122.864 0 0 4.5 -0.18461 -0.869143 0.458813 0.85964
140.947 128.835 126.181 0 0 -0.828211 -0.114969 -0.119531 0.986151 0.999926
139.082 134.206 115.362 0 0 -2.87088 0.225132 0.862404 -0.453403 0.999897
137.1 130.019 122.806 0 0 -4.5 0.0952381 0.342407 0.934712 0.25254
138.682 127.111 120.11 0 0 -3.5 0.243907 -0.512224 0.82349 -0.658041
128.606 126.015 118.6 0 0 1.5812 0.198438 -0.785538 0.586133 0.960239
140.963 134.285 117.555 0 0 4.5 -0.329918 0.824323 -0.46005 0.999931
126.861 132.476 122.098 0 -0.227391 -3.5 0.164308 0.929933 0.328979 -0.707934
124.024 126.734 121.912 0 0 4.5 0.883863 -0.354882 0.304703 -0.672486
122.873 134.547 120.325 0 -0.0451225 -1.3 -0.922103 0.377181 0.0863756 0.232521
139.589 134.077 116.257 0 -0.0320475 3.63697 0.435827 0.90003 -0.000115835 0.660655
141.575 131.861 113.588 0 0 0.703904 0.203288 0.935139 -0.290155 0.999922
121.228 132.906 121.948 0 -0.420646 -0.8 -0.557889 0.805094 0.201451 0.999921
140.219 129.71 126.058 0 0 1.8 0.267723 -0.0990193 0.958394 -0.244029
134.68 131.319 122.345 0 0 -4.5 0.524957 0.57202 0.630249 -0.183643
122.84 133.801 121.872 0 -0.836487 -0.8 -0.481945 0.761034 0.434231 0.257135
140.625 123.22 113.196 0 -0.825617 2.8 0.182192 0.242149 -0.952979 -0.999895
121.313 132.736 120.858 0 -0.00596672 -1.29391 -0.550118 0.731983 -0.401959 0.999907
141.424 126.626 112.023 0 0 2.8 -0.677192 -0.679979 -0.28114 0.999892
130.656 133.526 118.302 0 0 2.8 -0.543937 -0.0334524 -0.838459 -0.166061
121.319 132.022 122.99 0 0 -0.8 -0.634358 0.635946 0.439503 -0.999947
138.521 130.821 127.24 0 0 0.10051 0.280581 0.417639 0.864206 0.633517
133.801 133.227 123.91 0 0 -4.5 0.996018 0.00752212 0.0888333 0.478729
138.454 131.611 112.925 0 0 3.21435 -0.525449 0.587862 -0.615079 0.720906
123.411 136.452 119.4 0 -0.455056 -1.3 -0.604563 0.679279 0.416033 0.731789
128.939 132.999 119.059 0 -0.606092 2.8 0.0471503 0.791411 -0.609463 -0.562282
140.447 126.942 113.325 0 0 2.8 -0.455132 -0.482923 -0.748091 -0.304232
129.39 128.624 122.425 0 0 -1.3 0.373376 -0.85362 0.363212 -0.744868
141.197 131.887 115.134 0 -0.0512273 -3.5 0.216367 0.920945 -0.324107 -0.81783
141.006 127.852 125.689 0 0 -3.9 -0.384967 -0.508764 0.770039 0.999929
137.208 128.751 123.104 0 0 -3.5 0.413155 -0.199606 0.888516 0.832205
140.862 134.829 122.01 0 0 -1.3 0.475436 0.609249 0.634646 0.999909
134.732 132.881 120.762 0 0 -4.5 0.561803 0.507234 0.653522 -0.538979
133.762 120.828 115.881 0 -0.752924 -1.3 -0.816936 0.570057 0.0874663 0.999938
129.03 134.14 119.649 0 -0.271381 2.8 -0.532894 0.411057 -0.739633 -0.0861527
139.279 129.234 126.723 0 0 -0.444631 0.583459 -0.432528 0.687383 0.531954
142.604 122.714 117.647 0 0 -1.6 0.673355 -0.739143 -0.0161472 -0.99994
138.783 128.554 121.284 0 0 -3.5 0.0994131 -0.726534 0.679901 -0.514818
138.018 123.428 118.842 0 -0.635057 -3.5 -0.837547 -0.158368 0.52291 -0.548034
125.489 128.256 123.282 0 0 4.5 0.420409 -0.894841 0.150054 -0.309249
130.225 130.965 127.038 0 0 3.8896 -0.322825 0.210097 0.922845 0.681007
142.535 132.238 115.576 0 -0.903221 -3.5 -0.0780401 0.882195 -0.464372 -0.999931
135.385 126.416 121.274 0 -0.0501687 -3.5 0.0543613 -0.897937 0.436754 0.929168
141.068 130.349 125.91 0 0 1.8 0.185117 0.0904146 0.978548 0.999935
140.751 121.216 118.588 0 0 -1.6 0.587927 -0.808764 0.01555 0.999889
129.625 127.585 119.61 0 0 -0.7 0.473612 -0.880632 0.0133916 -0.581956
124.447 125.399 119.66 0 0 4.5 0.865319 -0.47864 0.148751 0.999907
130.382 130.524 117.622 0 0 2.8 0.0602029 0.274074 -0.959822 -0.299409
121.392 131.885 119.944 0 0 -1.3 -0.616591 0.702295 -0.355804 -0.999897
139.036 134.961 119.581 0 0 4.5 -0.308239 0.774817 -0.551948 0.379238
129.258 130.148 117.328 0 0 2.8 0.571703 0.116914 -0.812088 -0.583047
143.01 125.393 114.091 0 -0.657889 -0.8 0.187564 -0.490585 -0.850968 -0.999924
141.339 130.123 112.238 0 0 4.5 -0.227202 0.528615 -0.817891 -0.999923
135.957 125.642 119.858 0 0 -3.5 -0.160931 -0.605136 0.779687 0.0615179
136.737 131.382 126.487 0 0 -1.6 -0.721813 0.565531 0.398949 0.791656
123.427 129.665 126.593 0 0 -1.28739 0.609085 0.507554 0.609429 -0.999928
133.809 132.212 122.868 0 0 -4.5 0.913705 0.178307 0.365171 -0.372056
135.63 130.012 113.799 0 0 1.89394 -0.232284 0.403795 -0.884869 0.999881
129.964 132.746 118.501 0 -0.523449 2.8 -0.0530774 0.468689 -0.881767 -0.0211332
127.812 133.673 118.891 0 -0.0779618 2.8 0.906195 0.350775 -0.236151 -0.476641
139.657 122.426 112.921 0 0 2.8 0.372973 0.181097 -0.909997 -0.999946
136.77 131.377 124.785 0 0 -4.5 -0.763316 0.534114 -0.363416 0.645055
129.674 131.282 117.689 0 0 2.8 0.395666 0.294112 -0.870027 -0.237186
134.787 127.02 114.201 0 -0.0680238 2.46652 -0.545534 -0.112041 -0.830566 0.674691
137.385 122.871 112.013 0 -0.000522333 2.0197 -0.454645 0.583256 -0.673135 0.99994
131.329 134.414 117.671 0 0 2.8 -0.2747 -0.059776 -0.95967 0.723551
139.937 135.812 120.182 0 0 4.5 -0.35492 0.837463 -0.415557 0.999927
134.112 128.889 115.536 0 0 2.8 -0.884738 0.203943 -0.419102 -0.559622
133.456 127.132 119.9 0 -0.612044 -1.7068 -0.357811 -0.919449 -0.163051 -0.238728
133.997 125.536 117.64 0 -0.027602 -0.7 -0.914826 -0.284101 0.287018 0.440582
141.77 123.533 121.526 0 0 3.8 -0.113654 -0.494568 0.861676 0.999928
127.7 131.854 123.796 0 0 -1.3 -0.66196 0.375073 0.648944 -0.238803
128.646 132.47 125.163 0 0 -0.189069 -0.732634 0.215699 0.64554 0.544258
128.892 132.297 117.565 0 -0.649064 2.8 0.534944 0.480354 -0.695051 0.140717
131.243 136.035 120.856 0 0 -0.4 0.0545789 0.844221 0.533209 -0.0324955
139.352 123.456 121.084 0 0 -0.700152 -0.221672 0.0407958 0.974267 0.787255
126.689 134.491 116.583 0 0 -0.4 0.467006 0.236522 -0.852035 0.478579
138.576 123.099 112.289 0 -0.000322936 2.8 0.18393 0.612586 -0.768706 0.999901
137.615 121.446 118.539 0 -0.458687 -3.04875 -0.633986 -0.18588 0.750674 -0.0901131
137.126 133.645 124.031 0 0 -4.5 -0.979546 0.052836 -0.19416 0.999869
138.64 135.251 120.453 0 0 -4.5 -0.539766 0.831486 -0.131468 0.600604
125.382 128.99 116.304 0 0 2.8 -0.185428 -0.0700553 -0.980157 0.578761
134.036 130.17 125.055 0 0 -3.5 0.912793 -0.403202 0.0650897 0.437953
122.79 130.197 116.713 0 0 2.8 -0.198181 -0.00300565 -0.980161 0.999876
132.719 129.164 117.101 0 0 2.8 -0.522677 0.0123006 -0.852442 0.0291692
126.083 134.211 121.247 0 0 -3.5 0.53935 0.270105 0.797587 -0.255204
125.187 132.482 124.34 0 0 -1.3 0.433975 0.632487 0.641581 0.643751
136.852 128.595 125.292 0 -0.0565094 -3.5 -0.765726 -0.620762 -0.168284 0.374586
126.439 129.733 123.966 0 0 -1.3 0.49572 -0.0758602 0.865163 -0.476035
122.819 134.865 119.067 0 0 -1.3 -0.986688 0.144097 0.0753838 0.378307
137.135 135.587 117.313 0 0 -2.03871 0.189412 0.973753 -0.126204 0.999872
132.203 135.514 121.477 0 0 -0.4 0.200981 0.907093 0.369851 -0.343507
123.615 125.45 123.309 0 0 1.8 0.968597 -0.240703 0.0623 -0.999923
137.901 133.393 122.026 0 0 -4.5 -0.894772 0.372225 0.246642 0.456114
123.287 135.561 119.894 0 -0.0205124 -1.3 -0.781735 0.488874 0.38716 0.13918
141.458 124.776 123.332 0 0 3.8 -0.633124 -0.769972 -0.0793536 -0.999926
136.536 127.92 122.886 0 0 -3.5 0.20536 -0.609917 0.765394 0.756631
140.712 128.943 111.536 0 0 4.5 -0.445566 0.358154 -0.820486 0.999929
133.243 128.279 116.736 0 -0.109792 2.17523 -0.805189 -0.107291 -0.583232 0.151945
136.198 129.258 126.272 0 0 -3.5 -0.958829 -0.272121 0.0812216 0.999909
137.004 128.828 123.857 0 0 -3.5 -0.711787 -0.505792 -0.487375 0.999887
132.226 127.631 119.281 0 -0.0320491 -0.7 -0.272824 -0.92439 -0.266591 -0.0301843
125.091 134.671 122.016 0 0 -3.5 0.227368 0.606507 0.761875 0.498831
131.567 136.765 118.505 0 -0.0529865 -2.33461 0.170733 0.818864 -0.548008 0.999904
124.485 129.469 125.698 0 0 -1.3 0.702331 0.221047 0.676661 -0.182793
132.195 131.353 127.312 0 0 2.71841 0.11072 0.270784 0.956252 0.999818
130.524 127.942 118.794 0 0 -0.7 0.299802 -0.945006 -0.130698 -0.253032
138.859 120.592 119.796 0 0 -1.3 -0.590554 -0.558973 0.58206 0.999916
131.091 136.838 120.05 0 0 -0.482565 -0.261587 0.928332 0.264145 0.999883
129.546 133.132 125.267 0 0 3.8 -0.328782 0.616547 0.715383 0.477755
135.041 124.403 118.831 0 0 -3.5 -0.490677 -0.586154 0.644716 0.82957
129.258 125.794 117.716 0 0 2.16894 0.631915 -0.756413 0.16889 0.99989
133.782 127.325 118.477 0 -0.951778 -0.7 -0.69357 -0.716758 0.07224 -0.520622
124.795 130.144 116.612 0 0 2.8 -0.173966 -0.0777585 -0.981677 -0.52017
134.346 124.28 117.698 0 0 -0.7 -0.720424 -0.666262 0.192572 0.924823
129.503 135.147 122.754 0 -0.021742 -1.56727 -0.575455 0.757751 0.307676 0.520486
127.465 134.209 117.698 0 0 2.8 0.884359 0.266805 -0.383046 -0.110549
134.487 126.189 114.695 0 -0.775093 -0.7 -0.804374 -0.312122 -0.505532 0.599671
135.88 132.153 121.081 0 0 -4.5 0.0698722 0.674493 0.734968 -0.105287
138.004 121.518 119.539 0 0 -2.51863 -0.86347 -0.322364 0.387945 0.610625
130.279 134.027 124.386 0 0 3.8 -0.187642 0.639933 0.745169 -0.999743
135.068 130.147 123.056 0 -0.244374 -3.70755 0.443518 0.372759 0.815072 0.134318
124.537 136.516 120.17 0 -0.51344 0.392024 -0.286222 0.744003 0.603769 0.654288
139.423 131.697 112.528 0 0 4.5 -0.0637177 0.472308 -0.879128 0.999861
126.735 127.685 121.742 0 0 4.5 -0.215118 -0.885205 0.412477 -0.366419
125.651 128.01 116.59 0 0 2.8 -0.17421 -0.282545 -0.943302 -0.35519
132.842 133.132 116.479 0 -0.0361128 2.31039 -0.725793 0.0557135 -0.685653 0.852564
137.256 135.006 116.006 0 0 -0.140463 0.33512 0.757679 -0.560015 0.645653
140.972 125.013 124.472 0 0 1.46607 -0.82653 -0.552771 0.106267 0.999922
134.128 134.857 119.653 0 0 -3.5 0.621677 0.78226 0.0398523 0.0640187
128.497 134.003 123.554 0 0 -1.73419 -0.761857 0.618942 0.191008 0.61567
122.779 133.107 119.847 0 0 -1.3 -0.846101 0.424114 -0.322863 -0.633003
130.6 136.747 118.84 0 0 -0.8 -0.361601 0.895836 -0.258309 0.999885
128.946 128.79 123.777 0 -0.0251358 -1.3 -0.00799489 -0.897491 0.44096 -0.0358351
131.323 134.633 124.39 0 0 3.8 -0.264488 0.69157 0.672144 0.215723
126.342 130.064 116.305 0 0 2.8 -0.110504 -0.102432 -0.988583 -0.24447
138.109 129.723 127.731 0 0 -1.55083 0.204902 0.00349958 0.978776 0.999883
126.211 136.11 120.721 0 0 -0.981267 0.149886 0.69055 0.707584 0.567809
126.018 135.767 116.727 0 0 2.09107 0.430539 0.468048 -0.77173 0.670832
124.974 135.734 121.217 0 -0.484764 -1.01198 -0.0129078 0.672361 0.740111 0.377806
136.986 124.563 113.784 0 0 2.8 -0.218347 0.276151 -0.935983 -0.159746
135.888 124.265 114.265 0 0 -0.4 -0.7498 0.112536 -0.652024 -0.0434901
134.32 126.447 118.476 0 -0.801944 -0.7 -0.869811 -0.340485 0.35707 -0.72777
122.258 133.468 121.107 0 0 -1.3 -0.709975 0.699301 -0.0831502 0.0999673
134.095 130.215 123.763 0 0 -3.94306 0.875139 -0.0612487 0.479979 -0.0429203
129.277 127.936 116.313 0 0 2.8 0.636105 0.118644 -0.762426 0.639321
131.848 135.322 122.985 0 0 0.963615 0.0124887 0.969885 0.243244 0.253018
140.322 127.434 124.857 0 0 -3.9 -0.734313 -0.566244 0.374368 -0.0352067
136.162 135.555 118.342 0 0 -3.47452 -0.202251 0.900594 0.384739 0.908522
132.215 133.79 125.24 0 0 3.8 0.15342 0.592035 0.791174 0.087411
132.261 128.605 126.663 0 0 2.86881 0.188894 -0.795593 0.57563 0.999871
129.991 135.748 121.794 0 -0.118032 -1.03932 -0.162264 0.935108 0.315028 0.613105
137.312 135.301 118.326 0 0 4.5 0.461984 0.824667 0.326335 0.754605
132.178 127.951 122.886 0 -0.11924 -2.42431 -0.052615 -0.835857 0.546421 0.14516
141.05 125.889 120.817 0 -0.378313 -3.5 -0.857742 -0.0599941 0.510567 -0.740051
133.243 128.876 126.012 0 0 -3.5 0.685887 -0.652436 0.322314 0.977657
126.078 126.851 117.725 0 0 3.52761 -0.184338 -0.941421 -0.282394 -0.162874
122.512 132.677 123.825 0 -0.225903 -0.8 -0.424675 0.828041 0.366058 0.505605
131.18 129.496 117.396 0 0 2.8 0.14572 0.0577552 -0.987639 0.542789
140.677 125.471 122.817 0 0 3.13187 -0.83393 -0.548825 -0.0578925 0.299566
139.2 128.06 124.44 0 -0.109213 -3.69573 -0.266158 -0.942134 -0.203823 0.0248219
131.092 131.853 126.935 0 0 3.8 -0.304336 0.498347 0.811807 0.811008
142.546 124.329 114.496 0 -0.986644 -0.8 0.477203 -0.121138 -0.870404 -0.999925
138.38 134.276 116.296 0 0 4.5 0.343248 0.928846 -0.139379 -0.145995
137.981 128.628 127.285 0 0 -3.9 0.0257466 -0.672931 0.739257 0.999895
131.854 130.758 117.602 0 0 2.8 -0.298352 0.10015 -0.949187 -0.290651
139.673 125.674 113.938 0 0 2.8 -0.0489693 0.11486 -0.992174 -0.535023
134.32 128.17 122.526 0 0 -3.5 0.182917 -0.588015 0.787896 -0.306323
125.348 134.732 116.406 0 0 0.863082 -0.0324055 0.00839502 -0.99944 0.606936
133.356 134.041 116.37 0 -0.237108 -1.14631 -0.4182 0.558888 -0.716067 0.999857
134.747 125.409 119.11 0 -0.511237 -1.5634 -0.73601 -0.420007 0.530927 0.233197
123.833 125.68 121.919 0 0 4.5 0.810906 -0.257533 0.525459 0.999903
125.083 127.498 124.551 0 0 1.81924 0.828371 -0.558424 0.0443194 0.607534
137.066 124.631 119.371 0 -0.301633 -3.5 -0.256533 -0.555278 0.791111 -0.0895852
127.568 135.183 117.969 0 -0.256852 1.78061 0.825698 0.275335 -0.492356 0.720513
128.408 126.686 119.372 0 0 1.89953 0.301307 -0.88656 0.351034 0.0302166
142.031 133.031 116.32 0 -0.171253 -3.5 0.175567 0.627538 -0.758533 -0.999904
137.492 134.956 124.955 0 0 -0.628374 -0.633689 0.602044 0.485779 0.999907
133.732 131.238 123.54 0 0 -4.5 0.858927 0.381151 0.342007 -0.612537
127.071 128.633 123.783 0 0 2.39825 0.0379391 -0.572291 0.819173 0.251686
134.69 131.958 121.541 0 0 -4.5 0.590928 0.551915 0.588383 -0.651191
125.408 133.531 116.525 0 0 -0.4 -0.212924 0.144047 -0.966392 -0.282039
132.526 129.978 127.334 0 0 4.5 0.303834 -0.285874 0.908824 0.857962
137.714 127.518 120.836 0 0 -3.5 0.366744 -0.619455 0.6941 -0.466449
133.626 135.503 120.813 0 0 -2.97207 0.604494 0.759478 0.240373 0.643908
126.352 132.835 116.028 0 0 -0.4 -0.0079055 0.333676 -0.942655 0.396558
138.318 135.549 123.699 0 0 -4.24664 -0.265787 0.87661 -0.401139 0.999904
137.762 133.78 115.383 0 0 1.06386 -0.141329 0.523715 -0.840088 0.121794
139.67 126.588 119.664 0 -0.00190009 -3.5 -0.16662 -0.191033 0.967339 -0.999884
124.089 126.584 125.902 0 0 1.76245 0.885928 -0.369681 0.28012 -0.999904
125.238 126.966 120.099 0 0 4.5 0.454105 -0.832338 0.317807 -0.349684
139.277 128.426 125.732 0 0 -3.9 0.0420418 -0.775468 0.629985 0.0840174
140.188 125.375 120.041 0 -0.503393 -3.5 -0.517524 0.35682 0.77772 -0.850811
126.854 128.096 116.257 0 0 2.8 -0.231572 -0.0958043 -0.968089 0.132745
134.506 121.792 116.557 0 0 -0.573461 -0.827145 0.531056 0.183876 0.492988
138.757 134.037 118.407 0 0 4.5 0.267711 0.945664 -0.184526 -0.423643
138.477 134.409 122.692 0 0 -1.3 -0.734257 0.604013 -0.309894 -0.0615127
128 133.074 124.184 0 0 -3.25594 -0.743793 0.466858 0.478346 0.74906
136.592 127.649 114.101 0 0 2.8 -0.0807705 0.00955545 -0.996687 -0.697031
127.208 126.557 116.135 0 0 3.35222 -0.444367 -0.479153 -0.756935 0.999863
136.796 129.962 113.879 0 0 2.29972 -0.238333 0.154886 -0.958753 -0.0440448
128.093 129.723 124.232 0 0 -1.3 -0.588299 -0.224509 0.776853 -0.0489348
137.675 134.241 119.54 0 0 0.803329 -0.450271 0.825554 0.340172 -0.0826236
137.389 128.969 113.892 0 0 2.8 -0.241085 -0.193821 -0.950953 -0.224967
132.649 131.755 117.104 0 0 2.8 -0.682574 -0.0570717 -0.728584 -0.214617
136.341 122.071 113.139 0 0 -1.6 -0.824736 0.0751254 -0.560505 0.999911
138.466 124.249 113.312 0 0 2.8 -0.0316412 0.539169 -0.841603 -0.0474946
133.356 132.929 125.135 0 0 -2.78501 0.864039 0.28776 0.413074 0.233178
130.144 134.855 123.83 0 0 3.55434 -0.248709 0.797518 0.549644 0.564071
135.434 122.39 115.124 0 0 -0.723501 -0.884607 0.258541 -0.388107 -0.075595
136.081 131.051 121.794 0 0 -4.5 0.0757035 0.602069 0.794847 -0.582636
138.771 120.229 118.279 0 0 -1.3 -0.61699 -0.642634 0.454253 -0.999926
141.905 124.471 122.322 0 0 3.8 -0.642897 -0.610718 0.462285 -0.999903
142.122 122.248 118.886 0 0 -1.6 0.634891 -0.770317 0.0593836 0.99988
126.001 136.483 117.652 0 0 -0.8 0.441536 0.752301 -0.488968 0.364578
135.68 121.125 114.379 0 0 -1.6 -0.71813 0.24373 -0.651832 -0.999921
133.092 127.782 117.604 0 -0.628356 -0.7 -0.622563 -0.740067 -0.254393 0.0200374
138.182 128.702 123.26 0 -0.939542 -3.5 -0.216543 -0.734837 -0.642747 0.644473
136.251 130.171 125.818 0 -0.88956 -3.44631 -0.979853 0.187978 -0.0674667 0.623473
124.438 127.619 122.754 0 0 4.5 0.720141 -0.693057 -0.0326881 -0.999804
129.718 127.255 118.382 0 0 -0.7 0.725086 -0.63527 0.265861 0.0495607
138.381 123.216 120.381 0 -0.0173092 -3.5 -0.769615 0.0667419 0.635011 0.652384
141.19 133.419 124.108 0 0 -1.3 0.673465 0.726036 0.138988 0.999899
124.216 125.493 120.701 0 0 4.5 0.836145 -0.462931 0.294204 0.999867
135.473 134.034 119.346 0 0 -4.45663 0.176158 0.677031 0.714561 -0.274985
138.778 135.102 121.77 0 0 -4.5 -0.697121 0.657459 0.285956 0.559912
136.524 121.193 118.112 0 -0.213555 -1.77041 -0.224775 -0.141755 0.964045 0.341555
140.794 124.842 121.152 0 0 -1.02998 -0.810078 0.141015 0.569112 -0.0295197
127.943 134.85 119.087 0 -0.661431 2.8 0.982825 0.157111 -0.0968037 0.999781
127.795 132.931 121.877 0 -0.696476 -3.5 -0.565392 0.755909 0.330051 -0.466642
125.583 128.641 124.353 0 0 0.0316051 0.736222 -0.307257 0.602968 0.0711561
133.801 129.755 116.484 0 0 2.8 -0.709476 0.0346176 -0.703878 -0.716017
139.708 128.148 113.3 0 0 2.8 -0.658368 -0.395683 -0.640302 -0.393607
135.189 125.4 114.373 0 0 1.32033 -0.608789 -0.356014 -0.708964 0.481143
136.82 128.382 126.482 0 -0.054615 -3.5629 -0.517032 -0.781145 0.349987 0.999903
138.439 122.049 120.474 0 0 -3.32716 -0.735465 -0.210543 0.644021 0.914807
133.939 131.217 116.107 0 0 2.8 -0.778259 -0.108388 -0.618518 -0.579912
126.778 131.159 123.877 0 0 -1.3 0.243479 0.176184 0.95377 -0.15699
139.882 127.453 120.354 0 -0.251645 -3.5 -0.328168 -0.622743 0.71028 -0.74421
140.733 127.623 111.36 0 -0.351941 1.51158 -0.810552 -0.288515 -0.50967 0.999884
124.124 128.583 126.81 0 0 -1.3 0.885823 0.106109 0.451728 0.999895
133.067 135.26 123.885 0 0 3.8 0.693532 0.710293 0.120408 0.999855
141.12 125.707 113.738 0 -0.422174 1.12022 -0.127544 -0.349909 -0.92806 -0.333764
135.758 123.868 118.202 0 0 -3.5 -0.3029 -0.803776 0.512051 0.163112
138.01 127.847 124.816 0 0 -3.9 -0.164266 -0.984158 -0.0667087 0.999876
135.637 127.422 122.448 0 0 -3.5 0.0669317 -0.706067 0.704975 0.55061
141.878 122.447 120.387 0 0 3.8 0.550878 -0.711932 0.435529 0.999885
137.95 130.598 122.674 0 0 -4.5 -0.883586 0.463226 0.0685425 -0.282753
133.564 129.034 123.497 0 0 -3.5 0.553878 -0.649285 0.521198 -0.170478
133.833 133.337 122.135 0 0 -4.5 0.923401 0.22377 0.311862 -0.427947
132.903 135.905 118.778 0 -0.0329607 -3.5 0.626322 0.669042 -0.400129 0.666107
134.672 126.178 120.144 0 -0.301724 -2.58329 -0.485516 -0.829983 0.274596 0.115814
141.02 131.964 125.684 0 0 1.8 0.261848 0.209687 0.942055 0.999921
133.52 127.121 116.737 0 -0.288289 -0.7 -0.928333 -0.351063 -0.12228 0.256454
135.399 121.624 117.795 0 0 -1.3 -0.514797 0.258457 0.817425 0.681643
141.576 121.788 117.154 0 0 -1.6 0.614023 -0.789286 0.00179562 0.999907
136.77 129.913 124.079 0 0 -3.53131 -0.910765 0.000149735 -0.412924 0.74584
126.387 132.244 123.498 0 -0.361777 -2.35637 0.235595 0.782853 0.575878 0.163454
133.974 132.508 115.79 0 0 1.83183 -0.458101 0.148131 -0.87647 0.370906
137.71 131.715 126.844 0 0 -0.70734 -0.0920286 0.699978 0.70821 0.719506
134.363 128.454 114.577 0 0 2.8 -0.775903 0.117188 -0.619872 0.592827
134.121 126.854 121.495 0 0 -3.5 -0.16143 -0.82873 0.53586 0.129978
137.379 126.634 113.749 0 0 2.8 -0.0737896 0.0386692 -0.996524 0.504926
128.955 131.098 126.009 0 0 1.0046 -0.728921 0.196739 0.65572 0.383826
135.86 129.312 123.289 0 -0.480499 -3.5 -0.0155339 -0.0642057 0.997816 0.501116
128.207 126.7 120.912 0 0 4.5 0.0332994 -0.976775 0.211664 0.999842
138.222 132.75 123.206 0 0 -4.5 -0.990133 -0.101693 -0.0964135 -0.392728
137.972 134.799 117.099 0 0 4.5 0.665856 0.741087 -0.086174 0.50343
135.949 123.243 117.312 0 0 -3.5 -0.603908 -0.125166 0.787165 -0.211961
138.232 129.492 122.525 0 -0.0750519 -3.5 0.0625041 -0.942345 0.328755 -0.232382
128.372 133.947 122.095 0 -0.345883 -3.5 -0.823434 0.5365 0.184729 -0.0576545
137.609 131.754 121.616 0 0 -4.5 -0.668317 0.368538 0.646168 -0.537333
137.326 120.208 117.627 0 0 -1.3 -0.162879 -0.494415 0.853829 -0.999921
123.737 135.071 121.54 0 -0.351582 -1.25428 -0.48031 0.65132 0.587439 0.664717
136.295 135.323 116.505 0 0 -3.5 -0.278235 0.794572 -0.539667 0.999813
130.719 127.903 120.472 0 0 -0.7 -0.0831351 -0.993643 0.0759068 -0.267058
127.244 136.318 118.396 0 -0.156363 -0.8 0.689395 0.656608 -0.305942 0.999865
128.385 127.4 121.972 0 -0.40856 -0.310184 0.280211 -0.832554 0.477846 0.316107
139.681 129.707 112.43 0 0 3.93237 -0.397717 -0.0310921 -0.916981 0.188687
128.101 128.452 116.001 0 0 2.8 0.107576 0.162646 -0.980803 0.439058
140.176 127.64 123.458 0 0 -3.5 -0.886371 -0.431901 -0.166759 -0.344072
140.598 133.983 123.085 0 0 -1.3 0.597634 0.760788 0.253052 -0.173776
130.551 135.637 118.061 0 0 1.03236 -0.53199 0.21114 -0.820004 0.999838
139.693 131.143 126.235 0 0 1.65683 0.400129 0.231675 0.886692 -0.014118
123.636 135.352 116.608 0 0 0.657837 -0.491418 0.0824077 -0.867016 0.999878
132.393 126.927 121.233 0 -0.425128 -2.43552 -0.255261 -0.962017 0.096774 0.861596
130.839 128.471 126.143 0 0 -1.3 -0.21473 -0.895071 0.390817 0.730825
136.54 130.05 127.076 0 0 -1.82908 -0.705107 -0.00775899 0.709059 0.999881
131.073 129.199 127.01 0 0 3.65001 -0.151788 -0.367267 0.917646 0.631856
137.805 133.818 125.452 0 0 -0.4 -0.419235 0.150255 0.895358 0.789186
133.499 134.878 122.305 0 0 -4.5 0.66058 0.703133 0.263131 0.33242
131.801 128.503 117.689 0 0 -0.7 -0.142119 -0.526931 -0.837942 0.067094
136.514 133.27 119.718 0 0 -4.5 -0.0693887 0.612475 0.787438 -0.902316
139.477 134.545 123.024 0 0 -1.3 0.210126 0.954504 0.211585 -0.118024
122.761 135.674 117.899 0 0 -1.3 -0.928222 0.204066 -0.311065 0.759757
123.359 133.12 122.761 0 -0.667468 -0.8 -0.2464 0.814679 0.524963 -0.475163
124.698 137.031 119.251 0 -0.0266167 1.8 -0.124865 0.948258 0.291916 0.999802
138.07 131.405 123.73 0 0 -4.5 -0.910369 0.347608 -0.224492 -0.616066
131.768 132.991 126.237 0 0 -0.0267774 -0.0125595 0.690005 0.723695 0.742247
129.794 129.118 117.205 0 0 2.8 0.372249 0.16723 -0.912943 -0.0440765
137.714 126.078 120.247 0 0 -3.5 0.138771 -0.373278 0.917282 0.117442
130.185 136.195 120.121 0 0 -0.445476 -0.467437 0.873376 0.136813 0.407387
131.312 132.286 118.348 0 0 2.8 -0.242361 0.202637 -0.948788 -0.721915
124.536 137.163 117.829 0 0 1.8 0.0256882 0.970274 -0.240641 0.999864
123.18 136.641 117.986 0 0 0.74029 -0.701549 0.703819 -0.111664 0.999885
140.939 126.882 121.149 0 -0.832352 -3.5 -0.970874 -0.238796 -0.0195078 -0.910819
128.861 125.702 116.688 0 0 4.2 0.350206 -0.789878 -0.503436 0.999894
133.284 134.885 118.162 0 0 -3.5 0.146447 0.852378 -0.502 -0.110489
142.265 125.991 112.917 0 -0.214707 0.144058 -0.35177 -0.80585 -0.476301 -0.999915
137.795 130.458 113.066 0 0 2.3136 -0.541206 0.0139018 -0.840775 0.721803
138.311 125.49 113.888 0 0 2.8 -0.00843746 0.116475 -0.993158 -0.441643
135.351 128.337 113.88 0 0 2.8 -0.230055 -0.0167015 -0.973034 0.520042
127.663 125.669 117.594 0 0 4.28239 -0.290811 -0.952006 0.0954595 0.999852
132.42 134.82 124.861 0 0 3.8 0.00757125 0.721994 0.691857 0.999897
134.072 131.225 125.598 0 0 -4.5 0.961941 0.261053 0.0807586 0.678724
140.115 121.32 120.528 0 0 3.8 0.076898 -0.472003 0.878237 0.999855
134.572 134.065 120.457 0 0 -4.5 0.818233 0.414852 0.397985 0.24079
122.84 130.845 126.211 0 0 -1.10277 0.4007 0.35616 0.84415 0.999848
123.084 128.99 116.876 0 0 2.8 -0.165915 -0.100981 -0.980956 -0.999876
137.035 132.627 115.198 0 0 1.8 -0.255867 0.346854 -0.902344 -0.37788
130.053 128.022 117.447 0 0 1.34871 0.778603 -0.412312 -0.47305 0.175404
128.567 126.745 115.808 0 0 4.2 0.387919 -0.218301 -0.895468 0.999865
128.036 133.034 117.61 0 -0.209874 2.8 0.67102 0.60622 -0.426882 -0.140875
121.852 131.835 124.573 0 0 -0.8 -0.486419 0.80625 0.336685 -0.999925
140.007 133.743 117.269 0 0 4.5 0.00621756 0.9704 -0.241424 -0.401943
129.268 128.8 125.1 0 0 -1.3 -0.535519 -0.82108 0.197604 0.475644
140.16 126.346 123.631 0 0 -3.63932 -0.970994 -0.236974 0.0318395 0.762952
132.432 134.135 117.549 0 0 2.8 -0.435946 0.134807 -0.889819 -0.0775842
129.248 129.674 126.795 0 0 3.63356 -0.597125 -0.360495 0.716579 0.999884
125.538 131.713 115.985 0 0 1.97312 -0.224503 -0.0224661 -0.974214 0.722936
140.505 134.722 118.984 0 0 4.5 -0.21721 0.813371 -0.539674 -0.999897
123.651 134.089 117.043 0 0 -1.23152 -0.596707 -0.103459 -0.795762 0.227963
138.088 128.247 126.144 0 0 -3.9 0.0833128 -0.953043 0.29115 0.342032
128.844 135.254 120.988 0 -0.908786 -3.5 -0.716212 0.697411 -0.0256363 0.50756
137.862 128.128 121.764 0 -0.134928 -3.5 0.534254 -0.686522 0.493215 0.393952
138.462 124.623 119.954 0 -0.766538 -3.5 -0.440135 0.124765 0.889221 -0.03634
125.146 133.366 123.037 0 -0.833424 -2.89368 0.365702 0.746312 0.556129 0.240122
134.79 130.298 114.605 0 0 2.8 -0.664209 0.260527 -0.700679 0.368818
126.738 127.16 119.405 0 0 4.5 -0.0904942 -0.965171 0.245472 -0.461191
127.845 130.267 116.166 0 0 2.8 0.313254 0.0227867 -0.949396 0.260374
124.95 126.114 117.945 0 0 4.5 0.5652 -0.818379 -0.103951 0.999886
127.487 131.719 115.777 0 0 2.8 0.319904 0.0644488 -0.945255 0.609213
137.279 132.705 120.847 0 0 -4.5 -0.7018 0.500487 0.506942 -0.277998
122.168 131.46 117.406 0 -0.84204 -1.3 -0.516488 0.567108 -0.641583 0.99988
125.123 127.809 121.576 0 0 4.5 0.445037 -0.764452 0.466428 -0.638299
140.654 133.425 125.337 0 0 -0.4 0.264986 0.41501 0.870373 0.999824
136.052 133.445 115.387 0 0 1.8 -0.180938 0.334374 -0.924909 0.666976
134.494 120.527 117.324 0 -0.521055 -1.3 -0.59106 0.0710823 0.803489 0.999916
140.816 126.284 125.032 0 0 -3.9 -0.826023 -0.268173 0.495752 0.999923
123.928 131.682 116.504 0 -0.0534535 0.845006 -0.410549 0.165332 -0.896725 0.30715
130.834 128.621 122.801 0 -0.753308 -1.3 -0.260622 -0.938244 0.227539 -0.530571
133.895 130.338 126.581 0 0 -3.12538 0.803444 -0.0397747 0.59405 0.999878
136.536 126.644 120.8 0 0 -3.5 0.259093 -0.750208 0.608324 -0.123316
137.43 123.051 118.1 0 -0.186572 -3.5 -0.553277 -0.390314 0.735893 -0.611803
133.166 132.216 126.299 0 0 -0.9 0.571123 0.529697 0.627088 0.750238
136.782 131.154 114.802 0 0 1.8 -0.425567 0.511982 -0.746169 -0.643969
134.998 134.977 117.926 0 0 -3.5 -0.185305 0.982 0.0365719 0.093848
137.725 132.375 125.025 0 0 -2.32008 -0.913932 0.386607 0.123545 -0.0484121
124.802 136.492 116.724 0 -0.0370024 2.52554 -0.106272 0.60218 -0.791256 0.999861
125.027 130.592 125.411 0 0 -1.3 0.553741 0.109177 0.825501 0.70956
132.39 136.487 119.691 0 -0.787615 -3.5 0.399764 0.900925 0.168887 0.57263
139.348 132.803 114.44 0 -0.898022 -3.08875 0.0215079 0.790926 -0.611534 0.0807115
138.943 132.681 125.813 0 0 0.0653583 -0.0747247 0.412301 0.907978 0.150594
123.708 132.538 125.119 0 -0.160517 -1.16861 -0.00352465 0.800176 0.599756 0.999791
123.792 126.007 124.5 0 0 1.8 0.859823 -0.507394 -0.0570615 -0.999857
127.878 134.048 120.234 0 -0.674166 -3.5 0.29782 0.863321 0.407406 -0.144128
140.212 128.364 121.931 0 -0.818694 -3.5 -0.802516 -0.577215 0.150966 -0.63967
122.938 132.718 118.385 0 0 -1.3 -0.849816 0.377839 -0.367493 -0.201211
134.456 125.117 115.778 0 0 -0.4 -0.86013 -0.398484 -0.318413 0.630571
126.051 136.911 118.875 0 -0.470167 -0.366832 0.263927 0.963896 0.0353171 0.600105
134.785 134.617 116.594 0 0 -3.5 -0.237585 0.713417 -0.659234 0.274404
135.484 123.346 116.411 0 0 -0.4 -0.959491 -0.226086 -0.168111 -0.141929
129.422 135.387 119.524 0 -0.590264 2.2412 -0.780592 0.465653 -0.416947 0.464037
139.321 135.207 124.832 0 0 -1.14638 0.426029 0.830283 0.359346 0.999865
132.339 128.283 124.607 0 0 -2.99679 0.228548 -0.969778 0.0854236 0.364415
141.027 124.697 113.612 0 -0.448589 -0.143773 0.231742 0.0789093 -0.969572 0.248883
140.616 132.355 113.689 0 -0.422506 -2.60583 0.333134 0.851186 -0.405591 0.658278
139.499 123.693 113.108 0 -0.165995 2.8 0.24639 0.365261 -0.897706 0.132529
138.41 129.413 113.045 0 0 2.8 -0.385154 -0.429043 -0.817055 0.677971
3 189 267 390
3 267 189 321
3 267 365 390
3 189 390 232
3 232 321 189
3 321 299 267
3 267 228 365
3 121 390 365
3 390 370 232
3 433 321 232
3 299 321 400
3 299 294 267
3 267 294 228
3 228 110 365
3 82 390 121
3 121 365 125
3 370 390 51
3 232 370 433
3 409 321 433
3 400 321 32
3 294 299 400
3 294 147 228
3 221 110 228
3 110 125 365
3 128 390 82
3 33 82 121
3 121 125 136
3 51 390 128
3 51 313 370
3 419 433 370
3 32 321 409
3 250 409 433
3 32 418 400
3 400 130 294
3 294 161 147
3 354 228 147
3 362 110 221
3 228 354 221
3 362 125 110
3 128 82 345
3 33 345 82
3 33 121 88
3 136 125 23
3 385 121 136
3 345 51 128
3 313 51 166
3 192 370 313
3 419 337 433
3 192 419 370
3 382 32 409
3 250 382 409
3 337 250 433
3 418 32 382
3 418 120 400
3 130 400 323
3 161 294 130
3 147 161 354
3 221 354 362
3 113 125 362
3 435 345 33
3 88 121 385
3 97 33 88
3 125 113 23
3 23 385 136
3 166 51 345
3 423 313 166
3 313 423 192
3 419 153 337
3 287 419 192
3 382 250 424
3 190 250 337
3 26 418 382
3 263 120 418
3 400 120 374
3 400 374 323
3 39 130 323
3 161 130 39
3 161 279 354
3 362 354 383
3 362 402 113
3 435 195 345
3 435 33 97
3 122 88 385
3 428 97 88
3 23 113 402
3 385 23 404
3 195 166 345
3 195 423 166
3 423 247 192
3 211 153 419
3 337 153 190
3 287 211 419
3 379 287 192
3 250 65 424
3 424 26 382
3 190 226 250
3 86 418 26
3 374 120 263
3 263 418 372
3 374 126 323
3 126 39 323
3 316 161 39
3 161 316 279
3 279 164 354
3 383 354 169
3 208 362 383
3 402 362 342
3 435 171 195
3 396 435 97
3 428 88 122
3 179 122 385
3 97 428 396
3 23 402 404
3 385 404 60
3 171 423 195
3 423 154 247
3 192 247 379
3 215 153 211
3 190 153 330
3 287 6 211
3 95 287 379
3 250 226 65
3 50 424 65
3 26 424 86
3 226 190 330
3 372 418 86
3 374 263 266
3 266 263 372
3 126 374 42
3 39 126 180
3 35 316 39
3 175 279 316
3 279 175 164
3 164 169 354
3 283 383 169
3 362 208 342
3 208 383 384
3 402 342 256
3 435 364 171
3 435 396 364
3 428 122 291
3 237 122 179
3 57 179 385
3 396 428 333
3 404 402 198
3 60 404 248
3 57 385 60
3 137 423 171
3 154 423 137
3 247 154 353
3 379 247 353
3 153 215 330
3 211 6 215
3 355 6 287
3 287 95 355
3 379 312 95
3 65 226 73
3 424 50 91
3 73 50 65
3 424 186 86
3 258 226 330
3 186 372 86
3 374 266 261
3 266 372 441
3 261 42 374
3 126 42 296
3 180 126 296
3 35 39 180
3 316 35 431
3 132 175 316
3 131 164 175
3 164 338 169
3 174 383 283
3 169 108 283
3 208 384 342
3 384 383 369
3 342 262 256
3 198 402 256
3 364 137 171
3 364 396 214
3 237 291 122
3 428 291 52
3 139 237 179
3 179 57 139
3 333 428 292
3 333 178 396
3 198 392 404
3 248 404 392
3 248 57 60
3 214 154 137
3 353 154 209
3 379 353 312
3 330 215 258
3 215 6 265
3 6 355 265
3 355 95 181
3 95 312 243
3 73 226 387
3 91 50 239
3 439 424 91
3 50 73 387
3 424 439 186
3 226 258 387
3 341 372 186
3 325 261 266
3 372 341 441
3 266 441 41
3 42 261 325
3 296 42 204
3 180 296 431
3 35 180 431
3 316 431 132
3 175 132 205
3 164 131 348
3 131 175 314
3 348 338 164
3 338 108 169
3 369 383 174
3 283 68 174
3 238 283 108
3 384 262 342
3 384 369 262
3 256 262 58
3 256 144 198
3 137 364 214
3 214 396 178
3 291 237 339
3 52 291 339
3 12 428 52
3 237 139 201
3 139 57 248
3 292 428 24
3 333 292 193
3 178 333 193
3 176 392 198
3 244 248 392
3 209 154 214
3 209 304 353
3 304 312 353
3 215 265 258
3 265 355 405
3 243 181 95
3 405 355 181
3 119 243 312
3 239 50 22
3 91 239 104
3 74 439 91
3 50 387 22
3 186 439 49
3 258 393 387
3 341 186 49
3 266 41 325
3 441 341 41
3 203 42 325
3 204 42 203
3 434 296 204
3 431 296 434
3 132 431 177
3 205 132 233
3 314 175 205
3 348 131 324
3 324 131 314
3 348 1 338
3 0 108 338
3 174 375 369
3 68 283 238
3 375 174 68
3 108 328 238
3 369 375 262
3 58 262 219
3 256 58 188
3 188 144 256
3 176 198 144
3 214 178 271
3 237 277 339
3 432 52 339
3 148 428 12
3 12 52 200
3 139 231 201
3 237 201 277
3 244 139 248
3 24 428 148
3 292 24 70
3 134 193 292
3 271 178 193
3 176 412 392
3 392 412 244
3 214 271 209
3 209 376 304
3 85 312 304
3 258 265 112
3 265 405 10
3 243 77 181
3 181 334 405
3 77 243 119
3 85 119 312
3 4 91 104
3 49 439 74
3 74 91 4
3 22 387 69
3 393 258 112
3 69 387 393
3 341 49 115
3 325 41 40
3 341 295 41
3 325 373 203
3 203 28 204
3 434 204 272
3 431 434 177
3 173 132 177
3 132 173 233
3 233 314 205
3 61 348 324
3 324 314 105
3 216 1 348
3 413 338 1
3 0 328 108
3 62 0 338
3 401 68 238
3 68 401 375
3 401 238 328
3 262 375 219
3 219 43 58
3 43 188 58
3 188 381 144
3 144 381 176
3 277 432 339
3 200 52 432
3 12 200 148
3 139 244 231
3 231 421 201
3 277 201 421
3 30 24 148
3 30 70 24
3 320 292 70
3 260 193 134
3 134 292 320
3 21 271 193
3 412 176 146
3 394 244 412
3 271 197 209
3 376 209 197
3 36 304 376
3 85 304 36
3 112 265 143
3 405 156 10
3 10 288 265
3 77 273 181
3 334 181 273
3 329 405 334
3 241 77 119
3 119 85 2
3 112 129 393
3 341 115 160
3 41 295 40
3 40 373 325
3 295 341 302
3 373 269 203
3 203 269 28
3 28 7 204
3 204 7 272
3 272 257 434
3 434 331 177
3 177 306 173
3 233 173 116
3 116 314 233
3 348 61 216
3 230 61 324
3 314 415 105
3 308 324 105
3 1 216 413
3 62 338 413
3 328 0 340
3 0 62 340
3 401 219 375
3 3 401 328
3 403 43 219
3 43 38 188
3 381 188 38
3 146 176 381
3 432 277 366
3 359 200 432
3 148 200 202
3 244 394 231
3 421 231 347
3 421 366 277
3 399 30 148
3 399 70 30
3 320 70 399
3 193 260 21
3 135 260 134
3 300 134 320
3 183 271 21
3 406 412 146
3 430 394 412
3 271 183 197
3 376 197 212
3 212 36 376
3 36 270 85
3 265 288 143
3 143 129 112
3 405 329 156
3 288 10 156
3 184 273 77
3 334 273 310
3 360 329 334
3 77 241 184
3 119 2 241
3 270 2 85
3 341 160 302
3 89 40 295
3 40 229 373
3 81 295 302
3 373 229 269
3 269 140 28
3 7 28 268
3 7 268 272
3 272 15 257
3 257 331 434
3 177 331 306
3 306 16 173
3 173 16 116
3 415 314 116
3 61 230 216
3 327 230 324
3 105 415 308
3 324 308 327
3 216 437 413
3 90 62 413
3 328 340 187
3 62 90 340
3 219 401 403
3 253 401 3
3 328 187 3
3 432 366 359
3 185 200 359
3 185 202 200
3 202 165 148
3 394 347 231
3 357 421 347
3 421 367 366
3 148 165 399
3 149 320 399
3 21 260 172
3 172 260 135
3 264 135 134
3 264 134 300
3 300 320 149
3 183 21 172
3 406 430 412
3 430 357 394
3 27 197 183
3 212 197 27
3 212 270 36
3 288 46 143
3 143 46 129
3 329 259 156
3 259 288 156
3 273 184 327
3 66 310 273
3 360 334 310
3 420 329 360
3 241 207 184
3 377 241 2
3 377 2 270
3 229 40 89
3 89 295 81
3 440 269 229
3 140 269 440
3 140 127 28
3 28 127 268
3 278 272 268
3 278 15 272
3 257 15 96
3 317 331 257
3 331 416 306
3 306 416 16
3 16 236 116
3 415 116 363
3 311 216 230
3 37 230 327
3 397 308 415
3 308 159 327
3 437 216 311
3 413 437 388
3 196 90 413
3 187 340 63
3 340 90 56
3 253 403 401
3 187 253 3
3 366 367 359
3 185 359 87
3 185 157 202
3 336 165 202
3 394 357 347
3 367 421 357
3 399 165 29
3 149 399 25
3 326 172 135
3 326 135 264
3 242 264 300
3 422 300 149
3 172 27 183
3 430 406 14
3 152 357 430
3 212 27 361
3 212 417 270
3 46 288 356
3 329 45 259
3 356 288 259
3 184 37 327
3 273 327 66
3 332 310 66
3 124 360 310
3 420 142 329
3 360 124 420
3 377 207 241
3 184 207 37
3 270 417 377
3 305 229 89
3 81 371 89
3 79 440 229
3 440 123 140
3 410 257 96
3 331 317 289
3 410 317 257
3 331 141 416
3 16 416 236
3 363 116 236
3 246 415 363
3 230 37 311
3 308 397 159
3 415 246 397
3 159 93 327
3 145 437 311
3 388 437 349
3 413 388 196
3 90 196 56
3 63 340 56
3 187 63 48
3 253 109 403
3 407 253 187
3 359 367 87
3 157 185 87
3 157 336 202
3 165 336 29
3 357 157 367
3 358 399 29
3 399 358 25
3 25 426 149
3 224 172 326
3 326 264 388
3 264 242 196
3 151 242 300
3 151 300 422
3 426 422 149
3 361 27 172
3 14 111 430
3 157 357 152
3 430 194 152
3 417 212 361
3 94 46 356
3 142 45 329
3 45 142 259
3 259 249 356
3 327 93 66
3 332 44 310
3 66 93 332
3 319 124 310
3 352 142 420
3 124 281 420
3 377 145 207
3 37 207 311
3 417 414 377
3 305 438 229
3 305 89 371
3 123 440 79
3 438 79 229
3 410 289 317
3 141 331 289
3 141 17 416
3 236 416 101
3 363 236 398
3 246 363 67
3 93 159 397
3 397 246 100
3 218 437 145
3 145 311 207
3 437 213 349
3 388 349 391
3 196 388 264
3 242 56 196
3 63 56 242
3 63 242 48
3 407 187 48
3 286 109 253
3 407 286 253
3 157 87 367
3 157 72 336
3 29 336 358
3 426 25 358
3 224 361 172
3 224 326 103
3 388 391 326
3 242 151 293
3 293 151 422
3 380 422 426
3 111 194 430
3 72 157 152
3 152 194 72
3 417 361 168
3 94 356 344
3 259 142 249
3 249 436 356
3 280 44 332
3 44 319 310
3 397 332 93
3 281 124 319
3 142 352 240
3 420 425 352
3 281 117 420
3 145 377 414
3 168 414 417
3 305 114 438
3 114 305 371
3 438 55 79
3 289 410 53
3 289 335 141
3 17 141 182
3 101 416 17
3 398 236 101
3 251 363 398
3 363 251 67
3 301 246 67
3 246 301 100
3 100 332 397
3 218 213 437
3 145 414 218
3 349 213 351
3 391 349 351
3 48 242 102
3 48 102 407
3 234 286 407
3 336 72 206
3 336 78 358
3 426 358 220
3 224 168 361
3 391 103 326
3 103 168 224
3 102 242 293
3 167 293 422
3 380 167 422
3 20 380 426
3 80 194 111
3 72 194 206
3 344 356 436
3 94 344 11
3 142 240 249
3 240 436 249
3 163 44 280
3 13 280 332
3 319 44 163
3 150 281 319
3 240 352 436
3 420 322 425
3 425 408 352
3 117 281 350
3 117 322 420
3 245 414 168
3 114 225 438
3 225 55 438
3 53 335 289
3 274 141 335
3 141 274 182
3 182 298 17
3 298 101 17
3 398 101 284
3 251 398 255
3 251 301 67
3 301 429 100
3 34 332 100
3 245 213 218
3 218 414 245
3 351 213 245
3 391 351 103
3 407 102 282
3 71 234 407
3 78 336 206
3 358 78 8
3 220 358 8
3 386 426 220
3 103 351 168
3 293 235 102
3 293 167 18
3 167 380 118
3 386 20 426
3 80 206 194
3 285 344 436
3 11 344 54
3 163 280 307
3 13 223 280
3 13 332 34
3 163 150 319
3 281 150 162
3 352 408 436
3 425 322 346
3 408 425 346
3 350 281 162
3 19 117 350
3 322 117 19
3 351 245 168
3 182 274 170
3 170 298 182
3 101 298 284
3 398 284 138
3 255 398 290
3 251 255 217
3 301 251 217
3 368 429 301
3 34 100 429
3 235 282 102
3 71 407 282
3 234 71 155
3 206 75 78
3 78 75 8
3 83 220 8
3 220 83 386
3 235 293 18
3 303 18 167
3 118 303 167
3 75 206 80
3 54 344 285
3 408 285 436
3 307 280 223
3 163 307 150
3 343 223 13
3 13 34 429
3 297 162 150
3 322 84 346
3 315 408 346
3 162 297 350
3 350 199 19
3 84 322 19
3 298 170 378
3 298 47 284
3 284 47 138
3 290 398 138
3 290 217 255
3 301 217 368
3 429 368 389
3 235 427 282
3 427 71 282
3 427 155 71
3 8 75 83
3 235 18 252
3 303 252 18
3 254 307 223
3 150 307 395
3 210 223 343
3 343 13 429
3 395 297 150
3 84 199 346
3 315 346 106
3 297 227 350
3 350 227 199
3 199 84 19
3 47 298 378
3 138 47 378
3 31 290 138
3 290 368 217
3 389 368 222
3 429 389 343
3 427 235 252
3 303 9 252
3 307 254 395
3 210 254 223
3 343 389 210
3 227 297 395
3 346 199 98
3 76 106 346
3 98 199 227
3 138 378 31
3 31 275 290
3 222 368 290
3 389 222 191
3 395 254 98
3 254 210 92
3 411 210 389
3 98 227 395
3 98 76 346
3 64 106 76
3 31 378 133
3 133 275 31
3 275 222 290
3 222 158 191
3 411 389 191
3 254 76 98
3 92 210 411
3 92 64 254
3 254 64 76
3 133 378 309
3 158 222 275
3 59 309 378
3 276 309 59
3 107 276 59
3 276 107 318
3 5 318 107
3 276 318 99
