ply
format ascii 1.0
comment Generated by PyMesh
element vertex 280
property float x
property float y
property float z
property float charge
property float hbond
property float hphob
property float nx
property float ny
property float nz
property float si
element face 527
property list uchar int vertex_indices
end_header
145.27 156.681 142.648 0 0 -3.87869 -0.26254 -0.964921 0.00064372 -0.999963
140.042 157.383 148.035 0 0 -0.27498 0.51254 -0.795435 0.323396 0.999926
134.609 149.057 144.207 0 -0.0298144 -1.38765 -0.162888 -0.904066 -0.395136 0.18885
128.654 152.124 148.512 0 0 0.266887 -0.787401 -0.278335 0.550027 0.999903
137.977 154.872 147.286 0 0 3.8 0.477233 -0.186809 0.858691 -0.0961381
137.772 157.445 144.397 0 0 3.8 -0.157051 0.678945 -0.717195 -0.50728
137.829 157.156 149.486 0 0 3.8 0.361869 -0.93158 -0.0347893 -0.999928
137.678 147.221 135.337 0 0 4.5 -0.307971 -0.150796 -0.939369 0.733353
142.394 152.879 136.915 0 0 -0.7 0.334605 0.539373 -0.772733 0.475408
137.113 147.832 141.259 0 -0.156144 -3.5 -0.0254149 -0.673532 0.738721 -0.630473
138.792 146.732 139.189 0 0 4.2 0.313085 -0.77876 0.54361 0.0883093
140.644 151.366 136.564 0 0 2.8 -0.296063 0.203572 -0.933223 -0.336184
133.154 152.839 143.929 0 0 4.2 -0.768247 0.133642 -0.626048 0.638077
143.615 152.406 137.121 0 0 -0.7 0.648217 0.37306 -0.663808 0.720628
142.691 153.347 141.174 0 0 4.2 0.724053 0.512951 0.461117 0.553585
138.763 158.742 144.418 0 0 3.8 -0.271875 -0.596943 -0.754813 -0.323297
131.408 152.233 145.788 0 0 4.2 -0.540715 0.170024 -0.823844 -0.635261
140.043 159.124 142.01 0 -0.778217 -3.5 -0.360714 -0.901569 -0.238869 -0.999921
138.114 149.363 136.175 0 0 2.8 0.00324872 0.52853 -0.848908 -0.701152
135.57 151.71 139.582 0 0 2.24224 -0.0957409 0.882117 -0.461197 0.471263
140.752 150.268 136.22 0 0 2.8 -0.22119 0.280629 -0.933982 0.0160192
137.246 154.1 147.677 0 0 3.8 0.75724 0.110735 0.643681 -0.362379
134.902 149.373 146.922 0 0 -0.9 -0.108785 -0.822471 0.558308 -0.60746
135.47 159.085 148.064 0 -0.268233 -0.4 -0.576003 0.755753 -0.311541 0.999964
134.858 155.432 149.249 0 -0.912751 -3.5 -0.192539 -0.918328 -0.345836 0.938539
136.089 149.068 142.651 0 -0.0651002 -3.5 -0.0738851 -0.854937 0.513444 -0.509321
132.107 149.26 148.535 0 0 1.8 -0.317464 -0.921975 0.221764 0.999877
139.077 157.109 143.048 0 0 -2.10658 0.258052 0.715639 -0.649054 0.699724
139.671 155.995 137.26 0 -0.498908 0.957813 -0.332812 0.738294 -0.58665 0.999912
134.181 157.253 147.49 0 -0.390787 -1.95033 -0.965741 -0.0723056 0.249233 0.614764
134.054 157.453 148.32 0 -0.235219 -1.95 -0.671362 -0.017743 -0.740917 0.678198
135.904 149.218 136.894 0 0 -0.9 -0.691722 0.223848 -0.686595 0.404781
129.62 151.023 146.732 0 -0.292719 -0.838604 -0.472447 -0.730435 -0.493213 0.999864
140.174 147.429 139.11 0 0 4.2 0.354559 -0.779017 0.517128 -0.138703
139.742 147.208 135.588 0 -0.872531 -0.7 0.397732 -0.367762 -0.840571 0.591998
134.592 153.502 149.68 0 0 -1.3 -0.0960236 0.316097 0.943855 0.522585
134.217 148.878 146.129 0 -0.135516 -1.04637 -0.190587 -0.953733 0.232531 0.126716
140.518 158.69 143.171 0 0 -3.5 -0.302275 -0.953117 -0.0140275 0.999822
128.951 151.361 147.698 0 0 0.452434 -0.710291 -0.693806 0.118828 0.891789
137.765 158.456 144.87 0 0 3.8 -0.443579 0.0378952 -0.895434 -0.225773
140.775 155.481 137.097 0 -0.913712 -0.8 0.589838 0.561733 -0.580128 0.870548
133.568 156.831 150.706 0 0 -3.5 -0.831429 -0.532413 0.158942 0.999936
141.026 147.991 139.816 0 0 4.2 0.0699179 -0.899528 0.431231 -0.176981
134.206 154.929 144.713 0 0 -3.5 -0.716735 0.484713 -0.501342 -0.66482
133.333 150.096 141.952 0 0 4.2 -0.989437 -0.0131831 0.144365 0.786676
134.892 156.048 144.254 0 0 3.8 -0.593953 0.54501 -0.591763 0.422559
134.57 148.574 145.158 0 -0.0441173 -1.94711 -0.332147 -0.929792 -0.158635 0.778498
142.177 148.068 136.507 0 0 1.8 0.555251 -0.480942 -0.678521 0.682244
136.281 147.854 136.06 0 0 -0.829561 -0.738082 -0.219304 -0.638076 0.794321
137.242 150.454 136.772 0 0 2.8 -0.181346 0.724644 -0.664835 0.563036
140.366 149.074 135.839 0 0 2.25579 -0.0171432 0.272138 -0.962106 0.264493
145.839 157.152 140.7 0 0 -0.7 0.261973 -0.867556 -0.422749 -0.999964
133.727 155.676 145.766 0 -0.00922961 -3.5 -0.842925 0.458213 -0.281991 0.199516
137.497 148.262 144.071 0 -0.888159 -3.5 -0.282285 -0.929567 -0.23711 0.727895
138.812 159.464 142.123 0 -0.368259 -3.5 -0.501572 -0.819786 -0.276362 0.99995
137.674 148.669 146.165 0 0 4.5 0.269104 -0.73036 0.627819 0.496644
138.695 146.561 135.438 0 -0.497453 1.89018 0.0816452 -0.46538 -0.881337 0.999869
134.214 150.09 149.045 0 0 -0.9 0.237276 -0.805667 0.542771 0.273304
133.881 151.799 141.416 0 0 4.2 -0.807358 0.589299 -0.0299813 0.587509
142.01 147.587 138.438 0 0 4.2 0.441136 -0.892231 0.0965568 0.413276
141.929 153.831 141.809 0 0 4.2 0.580627 0.709313 0.399684 0.306162
136.823 149.553 136.223 0 0 0.950576 -0.354148 0.447801 -0.821007 0.641284
143.229 150.461 136.729 0 0 -0.4 0.769697 -0.0306027 -0.637675 0.458171
137.447 159.62 144.883 0 0 3.8 -0.791699 -0.209373 -0.573912 -0.999931
140.378 158.333 145.856 0 0 -3.9 0.861287 -0.285293 -0.420466 -0.999915
139.866 157.199 145.171 0 0 -3.9 0.919969 0.276707 -0.277651 0.0859175
140.245 156.235 138.083 0 -0.464826 -2.05687 0.269634 0.962564 0.0277024 0.999916
138.372 159.53 143.626 0 0 3.8 -0.62711 -0.62376 -0.466537 0.999937
134.989 155.323 148.921 0 -0.895416 -3.5 -0.122011 0.443945 0.887709 0.723264
137.639 155.201 142.24 0 0 -0.351259 -0.0584347 0.124201 -0.990535 0.826251
135.934 152.294 141.805 0 0 2.8 0.0116317 0.937249 -0.348467 -0.456986
130.502 153.728 148.829 0 0 -1.3 -0.548884 0.494591 0.673874 0.565699
128.872 151.806 146.777 0 0 -0.9 -0.766648 -0.394491 -0.506585 0.822311
133.828 148.252 141.043 0 -0.307438 -1.88507 -0.619888 -0.783051 0.0507025 0.734809
133.174 148.926 145.975 0 -0.510783 -0.504608 -0.0384037 -0.997841 -0.0532776 0.556262
141.559 153.71 142.757 0 0 4.40235 0.618097 0.559779 0.55191 0.859407
133.074 152.001 149.546 0 0 -1.3 0.0575584 0.0846979 0.994743 -0.61741
137.019 148.252 145.077 0 -0.503189 -3.5 -0.207684 -0.975035 0.0785735 0.358236
131.018 150.283 146.015 0 -0.134281 1.40418 -0.818059 -0.467776 -0.334612 0.73862
137.214 152.975 148.176 0 -0.0534436 3.70535 0.872218 0.162009 0.461508 -0.449134
140.141 154.616 136.647 0 -0.0560771 2.59433 -0.0772813 -0.00504748 -0.996997 0.999913
132.158 154.168 145.671 0 0 2.38803 -0.525923 0.576225 -0.625595 0.310213
133.057 149.624 149.445 0 0 -0.621413 0.127469 -0.775674 0.618127 0.999867
142.666 152.021 136.424 0 0 -0.528323 0.3803 0.332097 -0.863182 0.916245
135.633 149.647 147.662 0 0 2.42448 -0.140267 -0.822845 0.550683 0.0318968
143.956 157.677 138.775 0 0 4.2 -0.327249 -0.9436 0.0502642 -0.999935
133.749 149.227 146.95 0 0 0.84773 0.155967 -0.913306 0.376226 -0.087068
135.804 153.126 149.884 0 0 -1.3 0.303715 0.0839094 0.949061 0.867617
139.98 154.887 145.984 0 0 4.15006 0.846066 -0.260594 0.465041 0.840849
137.942 152.387 140.943 0 0 2.8 -0.623339 0.635867 -0.455106 -0.683996
135.168 150.984 149.906 0 -0.219615 2.19137 0.244115 -0.446774 0.860698 0.999887
140.432 157.402 146.99 0 0 -0.0464377 0.76755 -0.626575 0.135167 0.999905
137.546 156.093 147.591 0 0 3.8 0.400127 -0.316229 0.860173 -0.678765
140.732 149.953 144.569 0 0 4.5 0.872136 -0.344129 0.347784 0.603223
135.89 155.973 151.056 0 -0.891703 -1.3 0.014491 -0.918233 0.395775 0.99991
138.765 154.962 138.978 0 0 -3.5 -0.809851 0.425433 0.403916 0.538403
138.954 154.861 146.889 0 0 3.8 0.462348 -0.294618 0.836322 0.580818
135.51 155.876 143.436 0 0 3.30035 -0.497933 0.340546 -0.797553 0.999753
140.848 148.902 142.181 0 0 4.29045 0.49813 -0.787979 0.361879 0.141494
143.137 148.514 138.868 0 -0.262698 -0.8 0.849037 -0.527706 0.0257336 0.6553
129.907 150.762 148.037 0 -0.38894 1.48007 -0.521415 -0.83988 0.150759 0.508584
133.851 150.96 149.716 0 0 -1.3 0.04159 -0.189387 0.981021 0.275587
135.5 148.638 146.455 0 0 2.45278 -0.125369 -0.852458 0.507542 0.631316
144.22 156.967 142.741 0 0 3.90357 -0.303405 -0.951104 -0.057848 0.999795
140.883 149.346 143.566 0 0 4.5 0.856289 -0.354979 0.375178 0.582424
141.545 158.462 143.358 0 0 -3.85775 -0.412651 -0.859101 0.30276 -0.999916
138.402 148.126 145.176 0 -0.0954996 3.40219 0.234369 -0.908183 0.346808 0.99987
140.494 148.728 141.003 0 0 4.2 0.114378 -0.954417 0.275692 -0.99978
144.331 151.921 137.705 0 0 -0.73712 0.907484 -0.0161084 -0.419777 0.999885
134.548 149.429 143.032 0 -0.388868 0.903583 -0.348836 -0.893572 0.282564 -0.132912
134.639 156.204 151.153 0 -0.190062 -1.3 -0.379586 -0.834172 0.40009 0.999933
139.97 152.659 136.96 0 0 2.8 -0.427252 0.127935 -0.895036 0.316614
133.243 154.477 148.377 0 0 -3.5 -0.155069 0.861445 0.483598 -0.341619
142.65 151.477 141.404 0 0 3.8 0.735078 -0.144565 0.66239 -0.539405
139.995 156.518 146.067 0 0 -0.100517 0.966134 -0.172628 0.191795 0.055074
143.107 158.035 139.963 0 -0.0100109 2.59385 -0.315789 -0.914051 -0.254536 -0.999829
142.596 147.956 139.561 0 -0.0577999 3.68452 0.492238 -0.828781 0.266129 0.677754
142.116 149.406 141.683 0 0 3.8 0.548572 -0.291603 0.783605 0.0647244
141.266 151.309 142.989 0 0 4.5 0.789992 -0.123121 0.600628 -0.598563
136.481 146.782 139.727 0 0 2.5 -0.301901 -0.947387 0.106366 0.732784
139.421 153.873 146.023 0 0 4.10387 0.732911 -0.235623 0.638218 0.0831491
133.2 153.886 144.3 0 0 -3.10637 -0.67697 0.497784 -0.542146 0.463455
143.248 153.524 137.903 0 0 0.295639 0.57611 0.633901 -0.516011 0.577745
137.003 151.867 140.786 0 0 2.8 -0.060689 0.921714 -0.383093 -0.568329
130.759 150.587 146.979 0 -0.705601 -0.8 -0.591013 -0.781915 -0.198274 -0.207497
139.657 149.368 145.594 0 0 4.5 0.562516 -0.608681 0.559539 0.648932
130.645 151.46 145.996 0 0 4.2 -0.519562 -0.214692 -0.827021 0.114479
138.077 145.765 137.233 0 -0.20417 1.80639 -0.179963 -0.982014 0.0571076 0.924321
137.799 151.022 137.859 0 0 2.8 -0.33108 0.878597 -0.344169 -0.41342
145.574 156.598 141.673 0 0 3.00706 -0.149518 -0.961269 -0.231529 0.999886
129.221 153.136 148.917 0 0 -3.07765 -0.49513 0.308731 0.812115 0.751012
141.794 148.316 140.863 0 0 4.2 0.0988997 -0.860691 0.49943 0.506302
141.992 151.008 136.096 0 0 1.2 0.137699 0.171797 -0.975461 0.452641
137.402 151.149 148.411 0 -0.67848 2.56247 0.709632 -0.247733 0.659584 0.659266
135.926 159 147.016 0 -0.0248795 -0.4 -0.562887 0.79148 -0.238155 -0.999863
128.682 153.738 148.144 0 0 -3.5 -0.73093 0.61272 0.300525 0.999898
131.379 152.005 150.014 0 0 -1.3 -0.11423 0.149906 0.982079 0.702031
138.878 157.157 148.783 0 0 3.8 0.228572 -0.899018 0.373525 0.999886
134.954 147.701 138.49 0 0 0.730859 -0.719406 -0.630903 -0.290545 0.704329
137.118 146.436 137.192 0 0 2.5 -0.632183 -0.774796 -0.00600631 0.446523
140.376 158.928 144.436 0 0 -3.9 0.197392 -0.884504 -0.422716 -0.999908
136.294 150.369 137.154 0 0 1.04625 -0.382397 0.708138 -0.59356 0.460775
136.517 147.126 140.678 0 -0.0240531 -1.60037 -0.0730743 -0.814243 0.575906 0.477039
133.997 154.451 149.091 0 -0.0710792 -2.42129 -0.338035 0.591278 0.732204 0.274126
136.984 146.818 138.242 0 0 2.5 -0.456487 -0.88866 0.0436326 -0.492793
140.3 150.135 145.579 0 0 4.15518 0.743796 -0.22539 0.629259 0.878815
132.096 149.139 145.846 0 -0.398194 0.151158 -0.443086 -0.864072 -0.238862 0.99987
131.695 154.436 148.66 0 0 -2.42392 -0.125357 0.665891 0.735442 0.943
139.515 152.787 146.007 0 0 3.94712 0.762222 0.216513 0.610032 0.290318
134.364 156.713 145.335 0 0 2.19318 -0.714314 0.432522 -0.550163 0.588172
137.942 151.447 147.532 0 0 3.92127 0.768748 0.0152916 0.639369 0.0410094
140.88 148.182 135.885 0 0 1.8 0.325769 -0.169194 -0.930187 0.382117
136.62 159.385 146.095 0 0 -0.4 -0.535754 0.49543 -0.683752 -0.999911
140.907 147.27 138.131 0 0 4.2 0.372425 -0.893455 0.251075 -0.0576936
134.839 155.015 143.684 0 0 -3.5 -0.613902 0.39715 -0.682199 0.274828
139.075 158.934 143.219 0 0 -2.45301 -0.340071 -0.920636 -0.191785 0.463994
140.885 153.901 137.052 0 -0.886355 -0.8 0.145831 0.0804582 -0.986032 -0.142992
139.709 150.128 136.484 0 0 2.8 -0.197894 0.397848 -0.895854 -0.469952
128.333 152.375 147.538 0 0 -1.59518 -0.99 -0.119512 0.0749449 0.999885
140.799 147.223 136.244 0 -0.324899 -0.186874 0.520414 -0.705431 -0.481182 0.426803
140.962 154.896 140.457 0 0 -1.217 0.201548 0.936892 0.285677 0.222688
133.716 155.346 147.074 0 -0.471078 -3.5 -0.629518 0.723127 0.284243 -0.166047
138.52 152.11 139.433 0 0 2.8 -0.732934 0.596424 -0.327241 -0.515024
142.079 147.463 137.415 0 0 2.95799 0.547233 -0.829771 -0.109617 0.774956
132.489 152.175 144.908 0 0 4.2 -0.6718 0.102201 -0.733648 -0.26306
137.137 148.87 142.998 0 -0.440293 -3.5 -0.265846 -0.963999 0.00558112 -0.373995
134.364 149.924 147.924 0 0 -0.9 0.192979 -0.915844 0.352121 -0.759437
133.563 157.601 149.327 0 0 -3.5 -0.907917 -0.192293 -0.372438 0.999912
136.21 149.322 143.752 0 -0.193136 -3.5 -0.26525 -0.941209 -0.209207 -0.79961
141.73 158.268 141.033 0 -0.238786 -1.9792 -0.547652 -0.712713 -0.438312 0.99992
141.536 150.143 142.571 0 0 4.5 0.784102 -0.252056 0.567144 0.140392
139.469 147.799 139.933 0 0 4.2 0.349398 -0.755423 0.554309 -0.769546
138.107 156.583 142.633 0 0 -0.274063 -0.123527 0.649005 -0.750689 0.832357
138.675 149.698 146.316 0 0 4.5 0.469358 -0.458062 0.754905 0.293598
142.27 154.341 140.475 0 0 4.2 0.610485 0.723105 0.323152 0.714311
133.73 149.018 142.441 0 -0.722023 -1.65382 -0.742535 -0.461667 0.485289 0.937672
135.982 154.029 143.148 0 0 2.8 -0.276369 0.314085 -0.908279 -0.647798
134.825 158.132 146.144 0 -0.460536 0.946125 -0.62222 0.649521 -0.436994 0.731383
143.045 149.167 141.299 0 0 3.8 0.700348 -0.429708 0.569968 0.999897
134.022 155.877 149.885 0 -0.782424 -3.5 -0.614662 -0.784379 0.0833058 0.999858
133.318 150.71 144.162 0 0 4.2 -0.646248 -0.0958739 -0.757081 -0.210296
139.707 154.578 140.217 0 0 -3.5 -0.409736 0.871636 0.269012 0.0572212
143.684 151.268 137.169 0 0 -0.4 0.702261 -0.124914 -0.700875 0.33119
133.954 152.488 143.048 0 0 4.2 -0.72932 0.0337054 -0.683343 0.586417
132.916 149.166 147.72 0 0 -0.9 0.060416 -0.98396 0.167845 0.452141
134.277 148.218 139.223 0 0 -0.9 -0.837958 -0.506988 -0.201966 0.851121
134.052 157.102 146.417 0 -0.144352 1.67318 -0.959068 0.280765 -0.0368758 0.468377
137.316 148.518 141.961 0 -0.705761 -3.5 -0.00630225 -0.794067 0.607798 -0.267814
143.596 150.04 139.353 0 -0.979497 -0.8 0.911822 -0.393595 0.116895 0.126618
139.406 155.91 138.773 0 0 -3.5 -0.540985 0.792411 0.281814 0.999897
135.719 155.363 149.836 0 0 3.8 0.262124 -0.964869 0.0178703 0.999865
134.806 152.503 142.41 0 0 2.8 -0.551568 0.680276 -0.482698 -0.156769
137.135 151.267 139.204 0 0 2.8 -0.161314 0.909879 -0.382227 -0.49075
137.542 148.327 135.444 0 0 3.8453 -0.323488 0.227181 -0.918555 0.600201
137.809 146.438 139.045 0 0 2.5 -0.182088 -0.93717 0.297584 0.382231
132.668 154.865 146.407 0 -0.950459 -3.5 -0.50266 0.788237 -0.354986 0.0757633
140.394 155.657 145.192 0 0 0.639359 0.993822 0.0524975 0.0977804 0.999797
143.029 157.696 143.046 0 0 -3.9 -0.332562 -0.798344 0.502045 -0.999923
141.304 152.815 136.558 0 -0.248625 0.0593823 -0.00574694 0.359811 -0.933008 0.604789
137.372 156.505 150.479 0 0 3.8 0.560252 -0.825873 -0.0636421 0.999898
140.057 153.99 143.665 0 0 4.5 0.963997 0.13081 0.231512 -0.160947
137.009 156.87 148.646 0 0 3.8 0.432894 -0.882535 0.18367 -0.951474
136.625 151.657 149.059 0 -0.813145 2.5 0.532618 -0.255475 0.806877 0.322232
137.739 153.96 142.381 0 0 2.8 -0.496255 0.26551 -0.826581 -0.251463
133.683 149.223 140.224 0 0 -0.9 -0.93065 -0.234892 -0.280566 0.294099
131.092 150.147 148.8 0 -0.812779 -0.383747 -0.564705 -0.73834 0.36873 0.490499
133.422 150.63 140.937 0 0 2.7374 -0.932288 0.346211 -0.104772 0.999702
134.965 148.334 142.124 0 -0.796196 -3.5 -0.148064 -0.757612 0.635689 0.640804
139.683 148.254 143.277 0 0 4.35228 0.44332 -0.875646 0.191602 0.728152
139.397 148.301 135.415 0 0 2.8 0.0783596 0.25071 -0.964886 0.702672
144.479 151.428 139.128 0 -0.123499 2.19004 0.970831 -0.192063 0.143524 0.99985
134.528 158.481 148.342 0 -0.226667 -0.4 -0.823158 0.487434 -0.291238 0.999902
135.979 147.303 137.51 0 0 0.75945 -0.616559 -0.752722 -0.230791 0.387402
137.807 147.031 140.724 0 0 0.348954 0.15096 -0.805494 0.573054 0.753626
135.684 148.408 145.407 0 0 -1.92864 -0.0481889 -0.997221 -0.0568243 0.358802
139.246 151.373 146.542 0 0 3.8 0.59441 -0.059826 0.801933 0.505226
136.652 156.025 142.887 0 0 3.8 -0.457358 0.358263 -0.813923 0.558469
137.756 150.079 147.125 0 0 4.5 0.610985 -0.407229 0.678868 0.0240443
133.296 149.426 144.919 0 -0.86892 -1.3 -0.453766 -0.748725 -0.483225 0.189339
136.485 157.208 144.449 0 0 3.8 -0.334044 0.647184 -0.68525 -0.0438383
135.794 150.966 138.16 0 0 2.13752 -0.301744 0.777925 -0.551165 0.590947
134.057 153.711 143.33 0 0 -0.0934741 -0.497681 0.366172 -0.786277 0.601085
138.669 148.182 144.113 0 -0.0162571 2.85689 0.116278 -0.992858 -0.0266935 0.282429
138.895 148.327 141.322 0 0 4.2 0.158975 -0.945392 0.284537 -0.226587
134.9 152.31 140.803 0 0 2.8 -0.281446 0.879574 -0.383586 0.872034
131.805 149.495 147.256 0 -0.570405 0.0143597 -0.584685 -0.81118 0.0114312 0.331807
142.121 149.717 135.859 0 0 1.55991 0.296171 -0.0105389 -0.955077 0.710245
138.967 157.718 144.388 0 0 -0.136893 0.261238 0.47298 -0.841454 -0.0695104
136.802 153.199 149.222 0 0 3.8 0.764382 0.108636 0.635546 0.642499
140.969 158.43 141.898 0 0 -3.5 -0.548943 -0.835699 -0.0163855 0.999876
135.908 156.035 148.574 0 0 3.8 0.645179 -0.452227 0.615821 -0.259559
137.098 152.683 142.12 0 0 2.8 -0.319939 0.671113 -0.668765 -0.772764
138.998 156.449 147.392 0 0 3.8 0.498848 -0.616189 0.609476 -0.108109
131.596 151.211 145.045 0 0 4.2 -0.610612 0.130791 -0.781054 0.661685
138.107 153.371 146.639 0 0 3.8 0.618115 -0.0103812 0.786019 -0.75531
140.038 156.27 143.149 0 0 -3.79678 0.736264 0.343857 -0.582818 0.999829
135.3 152.005 149.919 0 0 -0.743063 0.0476244 -0.00661584 0.998843 0.472336
133.906 150.626 143.061 0 0 4.2 -0.996677 0.000414745 -0.0814596 -0.110721
131.938 150.837 149.906 0 0 -1.3 -0.154467 -0.266522 0.95137 0.61953
131.966 150.248 144.784 0 -0.51569 -0.368908 -0.530946 -0.384755 -0.755023 0.999859
138.967 145.858 136.379 0 -0.974134 -0.7 0.237339 -0.868084 -0.436005 0.96824
143.231 149.129 136.962 0 -0.387006 0.778921 0.851919 -0.335854 -0.40179 0.999824
137.418 146.416 135.927 0 0 4.5 -0.524481 -0.643389 -0.557647 0.877368
136.046 158.693 145.598 0 0 2.38634 -0.469411 0.701155 -0.536689 0.579597
143.49 150.549 140.542 0 0 3.8 0.793719 -0.107147 0.598774 0.326222
142.931 154.17 139.152 0 0 4.2 0.627962 0.772288 0.0960976 0.723177
138.809 153.721 140.343 0 0 2.37058 -0.847442 0.516159 -0.124187 0.0299204
143.514 152.555 140.742 0 0 4.12111 0.818685 0.27803 0.502448 0.587099
136.07 154.596 149.264 0 0 3.28251 0.299961 0.410234 0.861238 0.567359
139.007 153.129 137.945 0 0 2.8 -0.958819 0.0226085 -0.283116 0.0432131
140.618 155.465 139.346 0 0 -0.912732 0.222633 0.881675 0.416034 0.318306
128.555 153.209 146.895 0 0 -3.5 -0.842138 0.273238 -0.464914 0.999879
143.536 150.259 137.959 0 -0.909205 -0.8 0.916932 -0.34053 -0.208027 -0.0497515
135.53 148.234 137.284 0 0 -0.9 -0.810663 -0.21677 -0.543909 0.397945
139.876 146.14 137.339 0 -0.791515 0.0137244 0.480989 -0.875546 0.0454745 0.999798
142.165 157.368 141.953 0 0 -2.51919 -0.465442 -0.885005 0.0114239 0.737143
142.189 152.605 142.467 0 0 4.4 0.784841 0.104107 0.610889 0.536299
129.389 152.793 145.993 0 -0.110115 -0.968994 -0.448284 0.0278803 -0.893456 0.999862
144.143 152.855 138.814 0 0 4.2 0.854027 0.517644 -0.0517937 0.921953
129.989 151.674 149.213 0 -0.0516859 -1.09252 -0.526334 -0.119816 0.841794 0.299362
145.029 157.359 139.773 0 -0.817943 -0.7 -0.219024 -0.951544 -0.215855 0.999827
136.777 149.457 147.532 0 0 2.29177 0.227737 -0.787325 0.572935 0.498033
140.579 151.557 145.059 0 0 4.38676 0.872694 0.139854 0.46781 0.781663
139.732 154.652 142.585 0 0 0.467944 0.235598 0.932892 -0.272408 -0.0745298
129.865 154.505 146.972 0 -0.80487 -3.5 -0.331351 0.821627 -0.463828 0.999884
139.316 146.155 138.379 0 0 4.2 0.322835 -0.810843 0.488171 0.999819
140.72 152.19 143.938 0 0 4.30453 0.861519 0.172793 0.477417 -0.146404
130.828 153.462 145.971 0 0 4.2 -0.272546 0.358158 -0.892996 0.225358
134.715 156.202 148.314 0 -0.592226 -1.78483 -0.991349 -0.125979 0.0368218 -0.171879
138.647 154.521 137.527 0 0 2.8 -0.817159 0.0400514 -0.575019 0.849799
134.497 150.696 139.208 0 0 -0.9 -0.697182 0.506375 -0.507466 0.500998
135.585 147.523 141.158 0 0 -0.114595 -0.261063 -0.885758 0.383769 0.382318
135.841 150.234 148.681 0 0 2.44206 0.243693 -0.758505 0.604387 0.36028
132.573 153.452 149.484 0 0 -1.3 -0.17209 0.439131 0.881788 0.342084
138.775 151.16 137.184 0 0 2.8 -0.385151 0.527313 -0.757364 0.0656623
141.887 154.815 138.026 0 -0.380126 -0.26864 0.537664 0.662911 -0.521024 0.390802
130.691 154.606 147.803 0 0 -1.87246 -0.286631 0.94198 0.174691 0.262978
134.632 149.781 138.202 0 0 -0.9 -0.785077 0.163201 -0.597512 0.752756
140.318 154.768 141.57 0 0 -3.5 0.104778 0.979403 0.172603 0.5
139.706 153.61 144.94 0 0 4.5 0.949336 0.000205172 0.314261 -0.437866
3 213 10 171
3 10 213 194
3 171 10 265
3 223 213 171
3 213 119 194
3 10 194 265
3 33 171 265
3 187 213 223
3 223 171 107
3 119 213 142
3 144 194 119
3 265 194 127
3 33 42 171
3 265 153 33
3 9 213 187
3 187 223 165
3 42 107 171
3 208 223 107
3 9 142 213
3 119 142 271
3 144 139 194
3 212 144 119
3 194 139 127
3 265 127 254
3 153 42 33
3 254 153 265
3 9 187 271
3 165 223 222
3 165 25 187
3 131 107 42
3 223 208 222
3 107 98 208
3 142 9 271
3 271 138 119
3 139 144 212
3 212 119 138
3 242 127 139
3 127 240 254
3 116 42 153
3 254 159 153
3 187 25 271
3 165 222 53
3 165 168 25
3 98 107 131
3 42 116 131
3 125 222 208
3 98 104 208
3 185 138 271
3 48 139 212
3 138 253 212
3 127 242 240
3 139 48 242
3 240 159 254
3 153 59 116
3 159 163 153
3 25 207 271
3 222 106 53
3 53 168 165
3 109 25 168
3 117 98 131
3 131 116 178
3 106 222 125
3 208 93 125
3 170 104 98
3 93 208 104
3 138 185 277
3 271 204 185
3 253 48 212
3 253 138 277
3 240 242 56
3 48 193 242
3 240 34 159
3 153 163 59
3 99 116 59
3 47 163 159
3 109 207 25
3 207 73 271
3 106 77 53
3 77 168 53
3 168 2 109
3 98 117 170
3 131 178 117
3 116 188 178
3 173 106 125
3 125 93 145
3 170 118 104
3 104 266 93
3 277 185 204
3 204 271 73
3 31 48 253
3 31 253 277
3 242 7 56
3 240 56 34
3 193 48 61
3 242 193 7
3 34 151 159
3 59 163 99
3 188 116 99
3 47 241 163
3 159 151 47
3 175 207 109
3 207 175 73
3 77 106 55
3 168 77 214
3 168 214 2
3 218 109 2
3 170 117 113
3 117 178 244
3 178 188 244
3 106 173 55
3 173 125 215
3 145 93 262
3 145 215 125
3 170 113 118
3 118 266 104
3 266 262 93
3 270 277 204
3 204 73 175
3 48 31 61
3 277 141 31
3 7 209 56
3 56 209 34
3 18 193 61
3 209 7 193
3 209 151 34
3 163 241 99
3 252 188 99
3 226 241 47
3 226 47 151
3 175 109 237
3 261 77 55
3 214 77 261
3 214 46 2
3 109 218 237
3 2 46 218
3 244 113 117
3 210 244 188
3 55 173 217
3 217 173 215
3 145 262 215
3 118 113 256
3 266 118 256
3 262 266 148
3 220 277 270
3 204 206 270
3 44 204 175
3 61 31 141
3 277 220 141
3 209 193 18
3 18 61 49
3 209 50 151
3 99 241 252
3 210 188 252
3 62 241 226
3 226 151 50
3 44 175 237
3 55 217 261
3 214 261 102
3 36 46 214
3 237 218 180
3 218 46 36
3 244 247 113
3 244 210 247
3 150 217 215
3 215 262 148
3 256 113 247
3 266 256 75
3 279 148 266
3 270 19 220
3 44 206 204
3 206 224 270
3 49 61 141
3 220 192 141
3 209 18 274
3 274 18 49
3 157 50 209
3 252 241 62
3 252 108 210
3 62 226 132
3 50 20 226
3 237 206 44
3 217 133 261
3 84 102 261
3 102 36 214
3 180 218 239
3 183 237 180
3 218 36 74
3 247 210 258
3 217 150 133
3 215 234 150
3 148 234 215
3 247 14 256
3 256 60 75
3 75 200 266
3 148 279 120
3 200 279 266
3 270 224 19
3 19 192 220
3 58 224 206
3 141 128 49
3 141 192 128
3 157 209 274
3 128 274 49
3 20 50 157
3 62 182 252
3 252 182 108
3 210 108 258
3 226 20 132
3 62 132 182
3 191 206 237
3 133 272 261
3 102 84 22
3 84 261 272
3 102 22 36
3 146 239 218
3 233 180 239
3 191 237 183
3 164 183 180
3 74 36 86
3 218 74 146
3 247 258 245
3 79 133 150
3 79 150 234
3 120 234 148
3 14 247 174
3 14 60 256
3 263 75 60
3 200 75 263
3 88 120 279
3 279 200 88
3 224 123 19
3 19 123 192
3 224 58 191
3 58 206 191
3 162 128 192
3 274 11 157
3 128 162 274
3 11 20 157
3 13 108 182
3 13 258 108
3 11 132 20
3 132 83 182
3 133 202 272
3 22 84 166
3 272 166 84
3 22 86 36
3 78 239 146
3 164 180 233
3 78 233 239
3 183 221 191
3 12 183 164
3 74 86 184
3 146 74 184
3 258 122 245
3 174 247 245
3 133 79 228
3 21 79 234
3 234 120 96
3 14 174 60
3 278 263 60
3 263 235 200
3 120 88 96
3 196 88 200
3 224 70 123
3 123 89 192
3 224 191 70
3 192 89 162
3 274 111 11
3 162 249 274
3 13 182 83
3 258 13 122
3 132 11 198
3 83 132 198
3 228 202 133
3 202 90 272
3 22 166 86
3 272 57 166
3 225 78 146
3 16 164 233
3 78 126 233
3 183 12 221
3 191 221 176
3 164 121 12
3 184 86 166
3 225 146 184
3 245 122 275
3 245 160 174
3 228 79 21
3 4 21 234
3 4 234 96
3 160 60 174
3 181 263 278
3 160 278 60
3 263 69 235
3 200 235 196
3 232 96 88
3 88 196 114
3 231 123 70
3 123 231 89
3 191 231 70
3 162 89 246
3 111 274 249
3 11 111 198
3 246 249 162
3 83 122 13
3 8 83 198
3 228 87 202
3 90 202 236
3 90 57 272
3 57 82 166
3 124 78 225
3 164 16 267
3 16 233 126
3 126 78 124
3 121 221 12
3 221 154 176
3 191 176 231
3 121 164 81
3 166 82 184
3 184 26 225
3 122 8 275
3 245 275 250
3 250 160 245
3 248 228 21
3 92 21 4
3 96 92 4
3 246 263 181
3 181 278 160
3 69 263 203
3 172 235 69
3 65 196 235
3 92 96 232
3 88 114 232
3 196 65 114
3 203 89 231
3 246 89 203
3 249 269 111
3 198 111 156
3 249 246 95
3 122 83 8
3 275 8 198
3 87 228 248
3 236 202 87
3 101 90 236
3 57 90 101
3 101 82 57
3 205 124 225
3 16 126 267
3 164 267 81
3 124 32 126
3 154 221 121
3 176 154 97
3 203 231 176
3 81 195 121
3 184 82 26
3 26 205 225
3 40 250 275
3 250 181 160
3 248 21 230
3 230 21 92
3 263 246 203
3 246 181 95
3 216 69 203
3 172 27 235
3 216 172 69
3 235 227 65
3 201 92 232
3 91 232 114
3 64 114 65
3 95 269 249
3 111 269 156
3 198 156 275
3 35 87 248
3 35 236 87
3 76 101 236
3 238 82 101
3 124 205 100
3 257 267 126
3 267 276 81
3 124 100 32
3 257 126 32
3 43 154 121
3 97 154 45
3 97 203 176
3 81 276 195
3 121 195 43
3 82 205 26
3 66 250 40
3 156 40 275
3 95 181 250
3 248 230 68
3 230 92 201
3 203 97 216
3 27 172 227
3 235 27 227
3 172 216 219
3 65 227 64
3 201 232 137
3 232 91 1
3 114 64 91
3 189 269 95
3 156 269 80
3 248 143 35
3 35 273 236
3 76 238 101
3 236 273 76
3 205 82 238
3 100 205 259
3 267 257 264
3 276 267 264
3 32 100 38
3 32 72 257
3 43 149 154
3 154 149 45
3 45 219 97
3 161 195 276
3 43 195 52
3 189 250 66
3 28 66 40
3 40 156 80
3 250 189 95
3 68 230 268
3 143 248 68
3 230 201 190
3 219 216 97
3 5 227 172
3 219 5 172
3 140 64 227
3 232 1 137
3 201 137 6
3 269 189 28
3 269 28 80
3 273 35 143
3 238 76 136
3 136 76 273
3 259 205 238
3 100 259 38
3 257 251 264
3 276 264 135
3 72 32 38
3 257 72 251
3 43 52 149
3 219 45 149
3 52 195 161
3 161 276 112
3 189 66 28
3 28 40 80
3 230 24 268
3 143 68 268
3 201 199 190
3 190 24 230
3 39 227 5
3 5 219 39
3 15 140 227
3 199 201 6
3 112 273 143
3 259 238 136
3 273 259 136
3 259 3 38
3 251 135 264
3 130 276 135
3 158 72 38
3 72 158 251
3 149 52 186
3 149 177 219
3 186 52 161
3 147 112 276
3 143 161 112
3 24 179 268
3 143 268 161
3 94 190 199
3 179 24 190
3 227 39 15
3 219 152 39
3 155 140 15
3 273 112 147
3 259 273 147
3 3 259 130
3 3 158 38
3 251 158 135
3 130 259 276
3 135 158 130
3 149 186 177
3 177 243 219
3 186 161 268
3 276 71 147
3 268 179 167
3 179 190 94
3 67 15 39
3 152 219 243
3 63 39 152
3 155 37 140
3 15 67 155
3 71 259 147
3 3 130 158
3 276 259 71
3 186 211 177
3 243 177 134
3 268 29 186
3 167 179 41
3 268 167 30
3 179 94 110
3 67 39 63
3 134 152 243
3 37 155 17
3 155 67 54
3 211 186 29
3 177 211 134
3 268 211 29
3 110 41 179
3 211 30 167
3 211 268 30
3 17 155 54
3 229 37 17
3 211 23 134
3 37 229 105
3 229 255 105
3 169 255 229
3 105 255 197
3 115 255 169
3 197 255 103
3 115 103 255
3 260 103 115
3 103 260 129
3 260 115 85
3 51 129 260
3 0 103 129
